<svg width="113" height="158" viewBox="0 0 113 158" fill="none" xmlns="http://www.w3.org/2000/svg">
<path d="M11.2 93V135.4L17.6 137.8V139H2.4V137.8L8.8 135.4V85.4L4 84.2V83H14C16.7733 83 18.96 83.5867 20.56 84.76C22.2133 85.88 23.6267 87.56 24.8 89.8L42.24 123.16L55.6 89.8C56.5067 87.4533 57.7333 85.7467 59.28 84.68C60.8267 83.56 63.2 83 66.4 83H74.8V84.2L70 85.4V136.6L74.8 137.8V139H52V137.8L56.8 136.6V93L38 139.8H35.6L11.2 93ZM82.0469 139V137.8L86.8469 136.6V85.4L82.0469 84.2V83H104.847V84.2L100.047 85.4V136.6L104.847 137.8V139H82.0469Z" fill="black"/>
<path d="M4 71.8L8.8 70.6V19.4L4 18.2V17H25.2C34.2667 17 40.8 18.3867 44.8 21.16C48.8 23.88 50.8 27.6933 50.8 32.6C50.8 35.9067 49.92 38.6 48.16 40.68C46.4 42.7067 44.1333 44.2267 41.36 45.24C38.4267 46.36 35.3067 46.9467 32 47V47.4C33.9733 47.5067 35.7067 47.8 37.2 48.28C40.9333 49.4533 43.4667 51.56 44.8 54.6L52 70.6L56 71.8V73H44.8C40.4267 73 37.2267 70.7333 35.2 66.2L27.2 48.2H22V70.6L27.6 71.8V73H4V71.8ZM25.2 46.2C28.9333 46.2 31.8667 45.0267 34 42.68C36.1333 40.3333 37.2 36.9733 37.2 32.6C37.2 28.2267 36.1333 24.8667 34 22.52C31.8667 20.1733 28.9333 19 25.2 19H22V46.2H25.2ZM86.8344 74.2C78.941 74.2 72.9677 72.36 68.9144 68.68C64.861 64.9467 62.8344 59.72 62.8344 53V19.4L58.0344 18.2V17H80.8344V18.2L76.0344 19.4V53C76.0344 59.88 77.101 64.8133 79.2344 67.8C81.3677 70.7333 84.4344 72.2 88.4344 72.2C90.8877 72.2 93.2077 71.4267 95.3944 69.88C97.6344 68.28 99.421 66.04 100.754 63.16C102.141 60.2267 102.834 56.84 102.834 53V20.6L96.4344 18.2V17H111.634V18.2L105.234 20.6V53C105.234 57.32 104.434 61.08 102.834 64.28C101.234 67.48 99.0477 69.9333 96.2744 71.64C93.501 73.3467 90.3544 74.2 86.8344 74.2Z" fill="black"/>
</svg>
