<svg width="257" height="70" viewBox="0 0 257 70" fill="none" xmlns="http://www.w3.org/2000/svg">
<path d="M0.8 66.56L6.56 65.12V3.68L0.8 2.23999V0.799995H26.24C37.12 0.799995 44.96 2.464 49.76 5.792C54.56 9.056 56.96 13.632 56.96 19.52C56.96 23.488 55.904 26.72 53.792 29.216C51.68 31.648 48.96 33.472 45.632 34.688C42.112 36.032 38.368 36.736 34.4 36.8V37.28C36.768 37.408 38.848 37.76 40.64 38.336C45.12 39.744 48.16 42.272 49.76 45.92L58.4 65.12L63.2 66.56V68H49.76C44.512 68 40.672 65.28 38.24 59.84L28.64 38.24H22.4V65.12L29.12 66.56V68H0.8V66.56ZM26.24 35.84C30.72 35.84 34.24 34.432 36.8 31.616C39.36 28.8 40.64 24.768 40.64 19.52C40.64 14.272 39.36 10.24 36.8 7.424C34.24 4.608 30.72 3.2 26.24 3.2H22.4V35.84H26.24ZM100.201 69.44C90.7293 69.44 83.5613 67.232 78.6973 62.816C73.8333 58.336 71.4013 52.064 71.4013 44V3.68L65.6413 2.23999V0.799995H93.0013V2.23999L87.2413 3.68V44C87.2413 52.256 88.5213 58.176 91.0813 61.76C93.6413 65.28 97.3213 67.04 102.121 67.04C105.065 67.04 107.849 66.112 110.473 64.256C113.161 62.336 115.305 59.648 116.905 56.192C118.569 52.672 119.401 48.608 119.401 44V5.12L111.721 2.23999V0.799995H129.961V2.23999L122.281 5.12V44C122.281 49.184 121.321 53.696 119.401 57.536C117.481 61.376 114.857 64.32 111.529 66.368C108.201 68.416 104.425 69.44 100.201 69.44ZM143.878 12.8V63.68L151.558 66.56V68H133.318V66.56L140.998 63.68V3.68L135.238 2.23999V0.799995H147.238C150.566 0.799995 153.19 1.504 155.109 2.912C157.094 4.256 158.79 6.272 160.198 8.96L181.125 48.992L197.158 8.96C198.246 6.144 199.718 4.096 201.574 2.816C203.43 1.472 206.278 0.799995 210.118 0.799995H220.198V2.23999L214.438 3.68V65.12L220.198 66.56V68H192.838V66.56L198.598 65.12V12.8L176.038 68.96H173.158L143.878 12.8ZM228.894 68V66.56L234.654 65.12V3.68L228.894 2.23999V0.799995H256.254V2.23999L250.494 3.68V65.12L256.254 66.56V68H228.894Z" fill="black"/>
</svg>
