<svg width="171" height="46" viewBox="0 0 171 46" fill="none" xmlns="http://www.w3.org/2000/svg">
<path d="M0.2 44.04L4.04 43.08V2.12L0.2 1.16V0.199997H17.16C24.4133 0.199997 29.64 1.30933 32.84 3.528C36.04 5.704 37.64 8.75467 37.64 12.68C37.64 15.3253 36.936 17.48 35.528 19.144C34.12 20.7653 32.3067 21.9813 30.088 22.792C27.7413 23.688 25.2453 24.1573 22.6 24.2V24.52C24.1787 24.6053 25.5653 24.84 26.76 25.224C29.7467 26.1627 31.7733 27.848 32.84 30.28L38.6 43.08L41.8 44.04V45H32.84C29.3413 45 26.7813 43.1867 25.16 39.56L18.76 25.16H14.6V43.08L19.08 44.04V45H0.2V44.04ZM17.16 23.56C20.1467 23.56 22.4933 22.6213 24.2 20.744C25.9067 18.8667 26.76 16.1787 26.76 12.68C26.76 9.18133 25.9067 6.49333 24.2 4.616C22.4933 2.73867 20.1467 1.8 17.16 1.8H14.6V23.56H17.16ZM66.4675 45.96C60.1528 45.96 55.3742 44.488 52.1315 41.544C48.8888 38.5573 47.2675 34.376 47.2675 29V2.12L43.4275 1.16V0.199997H61.6675V1.16L57.8275 2.12V29C57.8275 34.504 58.6808 38.4507 60.3875 40.84C62.0942 43.1867 64.5475 44.36 67.7475 44.36C69.7102 44.36 71.5662 43.7413 73.3155 42.504C75.1075 41.224 76.5368 39.432 77.6035 37.128C78.7128 34.7813 79.2675 32.072 79.2675 29V3.08L74.1475 1.16V0.199997H86.3075V1.16L81.1875 3.08V29C81.1875 32.456 80.5475 35.464 79.2675 38.024C77.9875 40.584 76.2382 42.5467 74.0195 43.912C71.8008 45.2773 69.2835 45.96 66.4675 45.96ZM95.585 8.2V42.12L100.705 44.04V45H88.545V44.04L93.665 42.12V2.12L89.825 1.16V0.199997H97.825C100.044 0.199997 101.793 0.669331 103.073 1.608C104.396 2.504 105.526 3.848 106.465 5.64L120.417 32.328L131.105 5.64C131.83 3.76266 132.812 2.39733 134.049 1.544C135.286 0.647998 137.185 0.199997 139.745 0.199997H146.465V1.16L142.625 2.12V43.08L146.465 44.04V45H128.225V44.04L132.065 43.08V8.2L117.025 45.64H115.105L95.585 8.2ZM152.263 45V44.04L156.103 43.08V2.12L152.263 1.16V0.199997H170.503V1.16L166.663 2.12V43.08L170.503 44.04V45H152.263Z" fill="white"/>
</svg>
