<svg width="500" height="157" viewBox="0 0 500 157" fill="none" xmlns="http://www.w3.org/2000/svg">
<line x1="105" y1="39.5" y2="39.5" stroke="black" stroke-width="5"/>
<line y1="154.5" x2="500" y2="154.5" stroke="black" stroke-width="5"/>
<line x1="500" y1="39.5" x2="395" y2="39.5" stroke="black" stroke-width="5"/>
<line x1="497.5" y1="157" x2="497.5" y2="37" stroke="black" stroke-width="5"/>
<line x1="2.5" y1="37" x2="2.5" y2="157" stroke="black" stroke-width="5"/>
<path d="M164.2 58.04L168.04 57.08V16.12L164.2 15.16V14.2H181.16C188.413 14.2 193.64 15.3093 196.84 17.528C200.04 19.704 201.64 22.7547 201.64 26.68C201.64 29.3253 200.936 31.48 199.528 33.144C198.12 34.7653 196.307 35.9813 194.088 36.792C191.741 37.688 189.245 38.1573 186.6 38.2V38.52C188.179 38.6053 189.565 38.84 190.76 39.224C193.747 40.1627 195.773 41.848 196.84 44.28L202.6 57.08L205.8 58.04V59H196.84C193.341 59 190.781 57.1867 189.16 53.56L182.76 39.16H178.6V57.08L183.08 58.04V59H164.2V58.04ZM181.16 37.56C184.147 37.56 186.493 36.6213 188.2 34.744C189.907 32.8667 190.76 30.1787 190.76 26.68C190.76 23.1813 189.907 20.4933 188.2 18.616C186.493 16.7387 184.147 15.8 181.16 15.8H178.6V37.56H181.16ZM230.468 59.96C224.153 59.96 219.374 58.488 216.132 55.544C212.889 52.5573 211.268 48.376 211.268 43V16.12L207.428 15.16V14.2H225.668V15.16L221.828 16.12V43C221.828 48.504 222.681 52.4507 224.388 54.84C226.094 57.1867 228.548 58.36 231.748 58.36C233.71 58.36 235.566 57.7413 237.316 56.504C239.108 55.224 240.537 53.432 241.604 51.128C242.713 48.7813 243.268 46.072 243.268 43V17.08L238.148 15.16V14.2H250.308V15.16L245.188 17.08V43C245.188 46.456 244.548 49.464 243.268 52.024C241.988 54.584 240.238 56.5467 238.02 57.912C235.801 59.2773 233.284 59.96 230.468 59.96ZM259.585 22.2V56.12L264.705 58.04V59H252.545V58.04L257.665 56.12V16.12L253.825 15.16V14.2H261.825C264.044 14.2 265.793 14.6693 267.073 15.608C268.396 16.504 269.526 17.848 270.465 19.64L284.417 46.328L295.105 19.64C295.83 17.7627 296.812 16.3973 298.049 15.544C299.286 14.648 301.185 14.2 303.745 14.2H310.465V15.16L306.625 16.12V57.08L310.465 58.04V59H292.225V58.04L296.065 57.08V22.2L281.025 59.64H279.105L259.585 22.2ZM316.263 59V58.04L320.103 57.08V16.12L316.263 15.16V14.2H334.503V15.16L330.663 16.12V57.08L334.503 58.04V59H316.263Z" fill="black"/>
<mask id="path-7-outside-1_166_600" maskUnits="userSpaceOnUse" x="97" y="87" width="307" height="27" fill="black">
<rect fill="white" x="97" y="87" width="307" height="27"/>
<path d="M114.856 112H98.536V110.816H98.632C99.3573 110.816 99.8693 110.667 100.168 110.368C100.467 110.048 100.637 109.675 100.68 109.248C100.723 108.821 100.744 108.053 100.744 106.944V93.248C100.744 92.3947 100.776 91.648 100.84 91.008L98.536 91.136V89.6H106.184V90.784H106.088C105.363 90.784 104.851 90.944 104.552 91.264C104.253 91.5627 104.083 91.9253 104.04 92.352C103.997 92.7787 103.976 93.5467 103.976 94.656V108.256C103.976 109.323 103.944 110.133 103.88 110.688L109.64 110.592C110.963 110.571 111.933 110.144 112.552 109.312C113.192 108.48 113.512 107.125 113.512 105.248H115.048L114.856 112ZM140.428 90.784H140.332C139.607 90.784 139.084 90.944 138.764 91.264C138.465 91.5627 138.295 91.9253 138.252 92.352C138.209 92.7787 138.188 93.5467 138.188 94.656L138.124 101.92C138.103 105.013 137.399 107.552 136.012 109.536C134.625 111.499 132.385 112.48 129.292 112.48C126.967 112.48 125.132 112.075 123.788 111.264C122.444 110.453 121.484 109.216 120.908 107.552C120.332 105.888 120.044 103.701 120.044 100.992V94.656C120.044 93.376 120.087 92.16 120.172 91.008L117.868 91.104V89.6H125.484V90.784H125.388C124.492 90.7627 123.916 90.9973 123.66 91.488C123.425 91.9573 123.308 92.544 123.308 93.248V101.152C123.308 104.032 123.745 106.315 124.62 108C125.495 109.685 127.191 110.528 129.708 110.528C131.841 110.528 133.431 109.781 134.476 108.288C135.521 106.773 136.065 104.704 136.108 102.08L136.204 93.248C136.204 92.3947 136.236 91.648 136.3 91.008L134.028 91.136V89.6H140.428V90.784ZM164.363 107.744C163.125 109.515 161.696 110.752 160.075 111.456C158.453 112.139 156.8 112.48 155.115 112.48C152.96 112.48 151.04 111.979 149.355 110.976C147.669 109.952 146.357 108.576 145.419 106.848C144.48 105.12 144.011 103.221 144.011 101.152C144.011 99.104 144.437 97.1627 145.291 95.328C146.144 93.4933 147.424 92 149.131 90.848C150.859 89.696 152.928 89.12 155.339 89.12C157.6 89.12 159.669 89.6853 161.547 90.816L161.419 89.344H163.595V96.896H161.995C161.781 94.8907 161.109 93.3333 159.979 92.224C158.848 91.1147 157.376 90.56 155.563 90.56C154.091 90.56 152.747 90.976 151.531 91.808C150.315 92.64 149.355 93.8347 148.651 95.392C147.947 96.928 147.595 98.72 147.595 100.768C147.595 102.709 147.968 104.437 148.715 105.952C149.461 107.445 150.464 108.608 151.723 109.44C153.003 110.272 154.411 110.688 155.947 110.688C157.376 110.688 158.731 110.368 160.011 109.728C161.312 109.088 162.389 108.16 163.243 106.944L164.363 107.744ZM185.234 112H168.274V110.816H168.37C169.095 110.816 169.607 110.667 169.906 110.368C170.204 110.048 170.375 109.675 170.418 109.248C170.46 108.821 170.482 108.053 170.482 106.944V93.248C170.482 92.3947 170.514 91.648 170.578 91.008L168.274 91.136V89.6H184.114L184.274 95.328H182.77C182.791 93.5573 182.439 92.3627 181.714 91.744C181.01 91.104 179.996 90.8053 178.674 90.848L175.922 90.912C175.218 90.9333 174.706 91.072 174.386 91.328C174.087 91.584 173.895 91.9467 173.81 92.416C173.746 92.8853 173.714 93.632 173.714 94.656V99.648L179.282 99.68L179.058 96.928H180.914V103.776H179.41C179.41 102.965 179.324 102.357 179.154 101.952C179.004 101.547 178.748 101.28 178.386 101.152C178.044 101.003 177.532 100.928 176.85 100.928L175.826 100.96L173.714 101.056V108.256C173.714 109.323 173.682 110.133 173.618 110.688L179.506 110.592C180.956 110.571 182.055 110.197 182.802 109.472C183.548 108.747 183.911 107.467 183.89 105.632H185.426L185.234 112ZM216.742 96.48C216.72 95.1147 216.592 94.0373 216.358 93.248C216.144 92.4373 215.75 91.84 215.174 91.456C214.619 91.072 213.83 90.88 212.806 90.88H210.31L210.278 108.128C210.278 109.195 210.246 110.016 210.182 110.592L212.838 110.464V112H204.87V110.816H204.966C205.84 110.795 206.406 110.56 206.661 110.112C206.918 109.664 207.046 108.949 207.046 107.968V106.944L207.078 90.912L204.006 90.944C202.768 90.944 201.883 91.3813 201.35 92.256C200.816 93.1307 200.549 94.5387 200.549 96.48H198.918L199.11 89.6H218.214L218.406 96.48H216.742ZM243.834 90.784H243.738C243.013 90.784 242.49 90.944 242.17 91.264C241.872 91.5627 241.701 91.9253 241.658 92.352C241.616 92.7787 241.594 93.5467 241.594 94.656L241.53 101.92C241.509 105.013 240.805 107.552 239.418 109.536C238.032 111.499 235.792 112.48 232.698 112.48C230.373 112.48 228.538 112.075 227.194 111.264C225.85 110.453 224.89 109.216 224.314 107.552C223.738 105.888 223.45 103.701 223.45 100.992V94.656C223.45 93.376 223.493 92.16 223.578 91.008L221.274 91.104V89.6H228.89V90.784H228.794C227.898 90.7627 227.322 90.9973 227.066 91.488C226.832 91.9573 226.714 92.544 226.714 93.248V101.152C226.714 104.032 227.152 106.315 228.026 108C228.901 109.685 230.597 110.528 233.114 110.528C235.248 110.528 236.837 109.781 237.882 108.288C238.928 106.773 239.472 104.704 239.514 102.08L239.61 93.248C239.61 92.3947 239.642 91.648 239.706 91.008L237.434 91.136V89.6H243.834V90.784ZM274.859 112H257.899V110.816H257.995C258.72 110.816 259.232 110.667 259.531 110.368C259.829 110.048 260 109.675 260.043 109.248C260.085 108.821 260.107 108.053 260.107 106.944V93.248C260.107 92.3947 260.139 91.648 260.203 91.008L257.899 91.136V89.6H273.739L273.899 95.328H272.395C272.416 93.5573 272.064 92.3627 271.339 91.744C270.635 91.104 269.621 90.8053 268.299 90.848L265.547 90.912C264.843 90.9333 264.331 91.072 264.011 91.328C263.712 91.584 263.52 91.9467 263.435 92.416C263.371 92.8853 263.339 93.632 263.339 94.656V99.648L268.907 99.68L268.683 96.928H270.539V103.776H269.035C269.035 102.965 268.949 102.357 268.779 101.952C268.629 101.547 268.373 101.28 268.011 101.152C267.669 101.003 267.157 100.928 266.475 100.928L265.451 100.96L263.339 101.056V108.256C263.339 109.323 263.307 110.133 263.243 110.688L269.131 110.592C270.581 110.571 271.68 110.197 272.427 109.472C273.173 108.747 273.536 107.467 273.515 105.632H275.051L274.859 112ZM282.637 94.24C282.637 95.072 282.871 95.7867 283.341 96.384C283.831 96.9813 284.429 97.4827 285.133 97.888C285.858 98.272 286.839 98.7307 288.077 99.264C289.549 99.904 290.722 100.491 291.597 101.024C292.493 101.536 293.25 102.229 293.869 103.104C294.509 103.957 294.829 105.024 294.829 106.304C294.829 107.477 294.519 108.533 293.901 109.472C293.303 110.389 292.418 111.115 291.245 111.648C290.093 112.181 288.717 112.448 287.117 112.448C286.199 112.448 285.25 112.32 284.269 112.064C283.287 111.829 282.423 111.499 281.677 111.072L281.805 112.192H279.693L279.501 105.248H281.197C281.282 107.104 281.879 108.523 282.989 109.504C284.098 110.485 285.517 110.976 287.245 110.976C288.503 110.976 289.549 110.635 290.381 109.952C291.213 109.248 291.629 108.277 291.629 107.04C291.629 106.144 291.383 105.387 290.893 104.768C290.402 104.128 289.794 103.605 289.069 103.2C288.343 102.773 287.351 102.283 286.093 101.728C284.685 101.109 283.543 100.544 282.669 100.032C281.794 99.52 281.058 98.848 280.461 98.016C279.863 97.1627 279.565 96.1067 279.565 94.848C279.565 93.9947 279.767 93.1413 280.173 92.288C280.578 91.4133 281.282 90.6773 282.285 90.08C283.287 89.4613 284.621 89.152 286.285 89.152C287.159 89.152 288.066 89.2587 289.005 89.472C289.943 89.6853 290.807 90.0373 291.597 90.528L291.501 89.408H293.581V96.576H291.981C291.895 94.8693 291.383 93.44 290.445 92.288C289.506 91.136 288.194 90.56 286.509 90.56C285.293 90.56 284.343 90.912 283.661 91.616C282.978 92.2987 282.637 93.1733 282.637 94.24ZM316.121 112H299.161V110.816H299.257C299.982 110.816 300.494 110.667 300.793 110.368C301.092 110.048 301.262 109.675 301.305 109.248C301.348 108.821 301.369 108.053 301.369 106.944V93.248C301.369 92.3947 301.401 91.648 301.465 91.008L299.161 91.136V89.6H315.001L315.161 95.328H313.657C313.678 93.5573 313.326 92.3627 312.601 91.744C311.897 91.104 310.884 90.8053 309.561 90.848L306.809 90.912C306.105 90.9333 305.593 91.072 305.273 91.328C304.974 91.584 304.782 91.9467 304.697 92.416C304.633 92.8853 304.601 93.632 304.601 94.656V99.648L310.169 99.68L309.945 96.928H311.801V103.776H310.297C310.297 102.965 310.212 102.357 310.041 101.952C309.892 101.547 309.636 101.28 309.273 101.152C308.932 101.003 308.42 100.928 307.737 100.928L306.713 100.96L304.601 101.056V108.256C304.601 109.323 304.569 110.133 304.505 110.688L310.393 110.592C311.844 110.571 312.942 110.197 313.689 109.472C314.436 108.747 314.798 107.467 314.777 105.632H316.313L316.121 112ZM342.363 90.784H342.267C341.393 90.8053 340.827 91.0293 340.571 91.456C340.337 91.8613 340.219 92.5333 340.219 93.472V94.656L340.155 112.512H338.235L324.699 94.464L324.795 107.488C324.795 108.875 324.774 109.909 324.731 110.592L327.035 110.464V112H320.731V110.816H320.827C321.638 110.837 322.171 110.613 322.427 110.144C322.705 109.653 322.843 109.056 322.843 108.352L322.875 91.008L320.731 91.136V89.6H324.923L338.203 107.232L338.235 93.248C338.235 92.3947 338.267 91.648 338.331 91.008L336.027 91.136V89.6H342.363V90.784ZM366.706 107.744C365.469 109.515 364.04 110.752 362.418 111.456C360.797 112.139 359.144 112.48 357.458 112.48C355.304 112.48 353.384 111.979 351.698 110.976C350.013 109.952 348.701 108.576 347.762 106.848C346.824 105.12 346.354 103.221 346.354 101.152C346.354 99.104 346.781 97.1627 347.634 95.328C348.488 93.4933 349.768 92 351.474 90.848C353.202 89.696 355.272 89.12 357.682 89.12C359.944 89.12 362.013 89.6853 363.89 90.816L363.762 89.344H365.938V96.896H364.338C364.125 94.8907 363.453 93.3333 362.322 92.224C361.192 91.1147 359.72 90.56 357.906 90.56C356.434 90.56 355.09 90.976 353.874 91.808C352.658 92.64 351.698 93.8347 350.994 95.392C350.29 96.928 349.938 98.72 349.938 100.768C349.938 102.709 350.312 104.437 351.058 105.952C351.805 107.445 352.808 108.608 354.066 109.44C355.346 110.272 356.754 110.688 358.29 110.688C359.72 110.688 361.074 110.368 362.354 109.728C363.656 109.088 364.733 108.16 365.586 106.944L366.706 107.744ZM378.169 90.784C377.444 90.784 376.932 90.944 376.633 91.264C376.335 91.5627 376.164 91.9253 376.121 92.352C376.079 92.7787 376.057 93.5467 376.057 94.656V108.128C376.057 109.195 376.025 110.016 375.961 110.592L378.265 110.464V112H370.617V110.816H370.713C371.439 110.816 371.951 110.667 372.249 110.368C372.548 110.048 372.719 109.675 372.761 109.248C372.804 108.821 372.825 108.053 372.825 106.944V93.248C372.825 92.3947 372.857 91.648 372.921 91.008L370.617 91.136V89.6H378.265V90.784H378.169ZM402.04 112H394.264V110.816H394.36C395.576 110.816 396.184 110.336 396.184 109.376C396.184 109.035 396.067 108.533 395.832 107.872L394.744 104.96L386.712 105.152H386.808C386.552 105.856 386.189 106.965 385.72 108.48C385.528 109.12 385.272 109.824 384.952 110.592L387.416 110.464V112H380.984V110.816H381.08C381.571 110.837 381.965 110.741 382.264 110.528C382.584 110.293 382.84 109.984 383.032 109.6C383.224 109.216 383.459 108.629 383.736 107.84C383.757 107.755 383.875 107.424 384.088 106.848L390.712 88.928H391.864L399.032 107.104C399.608 108.64 399.885 109.803 399.864 110.592L402.04 110.464V112ZM391.992 97.632L390.744 94.176L389.592 97.312C388.845 99.36 388.099 101.472 387.352 103.648H394.232L391.992 97.632Z"/>
</mask>
<path d="M114.856 112H98.536V110.816H98.632C99.3573 110.816 99.8693 110.667 100.168 110.368C100.467 110.048 100.637 109.675 100.68 109.248C100.723 108.821 100.744 108.053 100.744 106.944V93.248C100.744 92.3947 100.776 91.648 100.84 91.008L98.536 91.136V89.6H106.184V90.784H106.088C105.363 90.784 104.851 90.944 104.552 91.264C104.253 91.5627 104.083 91.9253 104.04 92.352C103.997 92.7787 103.976 93.5467 103.976 94.656V108.256C103.976 109.323 103.944 110.133 103.88 110.688L109.64 110.592C110.963 110.571 111.933 110.144 112.552 109.312C113.192 108.48 113.512 107.125 113.512 105.248H115.048L114.856 112ZM140.428 90.784H140.332C139.607 90.784 139.084 90.944 138.764 91.264C138.465 91.5627 138.295 91.9253 138.252 92.352C138.209 92.7787 138.188 93.5467 138.188 94.656L138.124 101.92C138.103 105.013 137.399 107.552 136.012 109.536C134.625 111.499 132.385 112.48 129.292 112.48C126.967 112.48 125.132 112.075 123.788 111.264C122.444 110.453 121.484 109.216 120.908 107.552C120.332 105.888 120.044 103.701 120.044 100.992V94.656C120.044 93.376 120.087 92.16 120.172 91.008L117.868 91.104V89.6H125.484V90.784H125.388C124.492 90.7627 123.916 90.9973 123.66 91.488C123.425 91.9573 123.308 92.544 123.308 93.248V101.152C123.308 104.032 123.745 106.315 124.62 108C125.495 109.685 127.191 110.528 129.708 110.528C131.841 110.528 133.431 109.781 134.476 108.288C135.521 106.773 136.065 104.704 136.108 102.08L136.204 93.248C136.204 92.3947 136.236 91.648 136.3 91.008L134.028 91.136V89.6H140.428V90.784ZM164.363 107.744C163.125 109.515 161.696 110.752 160.075 111.456C158.453 112.139 156.8 112.48 155.115 112.48C152.96 112.48 151.04 111.979 149.355 110.976C147.669 109.952 146.357 108.576 145.419 106.848C144.48 105.12 144.011 103.221 144.011 101.152C144.011 99.104 144.437 97.1627 145.291 95.328C146.144 93.4933 147.424 92 149.131 90.848C150.859 89.696 152.928 89.12 155.339 89.12C157.6 89.12 159.669 89.6853 161.547 90.816L161.419 89.344H163.595V96.896H161.995C161.781 94.8907 161.109 93.3333 159.979 92.224C158.848 91.1147 157.376 90.56 155.563 90.56C154.091 90.56 152.747 90.976 151.531 91.808C150.315 92.64 149.355 93.8347 148.651 95.392C147.947 96.928 147.595 98.72 147.595 100.768C147.595 102.709 147.968 104.437 148.715 105.952C149.461 107.445 150.464 108.608 151.723 109.44C153.003 110.272 154.411 110.688 155.947 110.688C157.376 110.688 158.731 110.368 160.011 109.728C161.312 109.088 162.389 108.16 163.243 106.944L164.363 107.744ZM185.234 112H168.274V110.816H168.37C169.095 110.816 169.607 110.667 169.906 110.368C170.204 110.048 170.375 109.675 170.418 109.248C170.46 108.821 170.482 108.053 170.482 106.944V93.248C170.482 92.3947 170.514 91.648 170.578 91.008L168.274 91.136V89.6H184.114L184.274 95.328H182.77C182.791 93.5573 182.439 92.3627 181.714 91.744C181.01 91.104 179.996 90.8053 178.674 90.848L175.922 90.912C175.218 90.9333 174.706 91.072 174.386 91.328C174.087 91.584 173.895 91.9467 173.81 92.416C173.746 92.8853 173.714 93.632 173.714 94.656V99.648L179.282 99.68L179.058 96.928H180.914V103.776H179.41C179.41 102.965 179.324 102.357 179.154 101.952C179.004 101.547 178.748 101.28 178.386 101.152C178.044 101.003 177.532 100.928 176.85 100.928L175.826 100.96L173.714 101.056V108.256C173.714 109.323 173.682 110.133 173.618 110.688L179.506 110.592C180.956 110.571 182.055 110.197 182.802 109.472C183.548 108.747 183.911 107.467 183.89 105.632H185.426L185.234 112ZM216.742 96.48C216.72 95.1147 216.592 94.0373 216.358 93.248C216.144 92.4373 215.75 91.84 215.174 91.456C214.619 91.072 213.83 90.88 212.806 90.88H210.31L210.278 108.128C210.278 109.195 210.246 110.016 210.182 110.592L212.838 110.464V112H204.87V110.816H204.966C205.84 110.795 206.406 110.56 206.661 110.112C206.918 109.664 207.046 108.949 207.046 107.968V106.944L207.078 90.912L204.006 90.944C202.768 90.944 201.883 91.3813 201.35 92.256C200.816 93.1307 200.549 94.5387 200.549 96.48H198.918L199.11 89.6H218.214L218.406 96.48H216.742ZM243.834 90.784H243.738C243.013 90.784 242.49 90.944 242.17 91.264C241.872 91.5627 241.701 91.9253 241.658 92.352C241.616 92.7787 241.594 93.5467 241.594 94.656L241.53 101.92C241.509 105.013 240.805 107.552 239.418 109.536C238.032 111.499 235.792 112.48 232.698 112.48C230.373 112.48 228.538 112.075 227.194 111.264C225.85 110.453 224.89 109.216 224.314 107.552C223.738 105.888 223.45 103.701 223.45 100.992V94.656C223.45 93.376 223.493 92.16 223.578 91.008L221.274 91.104V89.6H228.89V90.784H228.794C227.898 90.7627 227.322 90.9973 227.066 91.488C226.832 91.9573 226.714 92.544 226.714 93.248V101.152C226.714 104.032 227.152 106.315 228.026 108C228.901 109.685 230.597 110.528 233.114 110.528C235.248 110.528 236.837 109.781 237.882 108.288C238.928 106.773 239.472 104.704 239.514 102.08L239.61 93.248C239.61 92.3947 239.642 91.648 239.706 91.008L237.434 91.136V89.6H243.834V90.784ZM274.859 112H257.899V110.816H257.995C258.72 110.816 259.232 110.667 259.531 110.368C259.829 110.048 260 109.675 260.043 109.248C260.085 108.821 260.107 108.053 260.107 106.944V93.248C260.107 92.3947 260.139 91.648 260.203 91.008L257.899 91.136V89.6H273.739L273.899 95.328H272.395C272.416 93.5573 272.064 92.3627 271.339 91.744C270.635 91.104 269.621 90.8053 268.299 90.848L265.547 90.912C264.843 90.9333 264.331 91.072 264.011 91.328C263.712 91.584 263.52 91.9467 263.435 92.416C263.371 92.8853 263.339 93.632 263.339 94.656V99.648L268.907 99.68L268.683 96.928H270.539V103.776H269.035C269.035 102.965 268.949 102.357 268.779 101.952C268.629 101.547 268.373 101.28 268.011 101.152C267.669 101.003 267.157 100.928 266.475 100.928L265.451 100.96L263.339 101.056V108.256C263.339 109.323 263.307 110.133 263.243 110.688L269.131 110.592C270.581 110.571 271.68 110.197 272.427 109.472C273.173 108.747 273.536 107.467 273.515 105.632H275.051L274.859 112ZM282.637 94.24C282.637 95.072 282.871 95.7867 283.341 96.384C283.831 96.9813 284.429 97.4827 285.133 97.888C285.858 98.272 286.839 98.7307 288.077 99.264C289.549 99.904 290.722 100.491 291.597 101.024C292.493 101.536 293.25 102.229 293.869 103.104C294.509 103.957 294.829 105.024 294.829 106.304C294.829 107.477 294.519 108.533 293.901 109.472C293.303 110.389 292.418 111.115 291.245 111.648C290.093 112.181 288.717 112.448 287.117 112.448C286.199 112.448 285.25 112.32 284.269 112.064C283.287 111.829 282.423 111.499 281.677 111.072L281.805 112.192H279.693L279.501 105.248H281.197C281.282 107.104 281.879 108.523 282.989 109.504C284.098 110.485 285.517 110.976 287.245 110.976C288.503 110.976 289.549 110.635 290.381 109.952C291.213 109.248 291.629 108.277 291.629 107.04C291.629 106.144 291.383 105.387 290.893 104.768C290.402 104.128 289.794 103.605 289.069 103.2C288.343 102.773 287.351 102.283 286.093 101.728C284.685 101.109 283.543 100.544 282.669 100.032C281.794 99.52 281.058 98.848 280.461 98.016C279.863 97.1627 279.565 96.1067 279.565 94.848C279.565 93.9947 279.767 93.1413 280.173 92.288C280.578 91.4133 281.282 90.6773 282.285 90.08C283.287 89.4613 284.621 89.152 286.285 89.152C287.159 89.152 288.066 89.2587 289.005 89.472C289.943 89.6853 290.807 90.0373 291.597 90.528L291.501 89.408H293.581V96.576H291.981C291.895 94.8693 291.383 93.44 290.445 92.288C289.506 91.136 288.194 90.56 286.509 90.56C285.293 90.56 284.343 90.912 283.661 91.616C282.978 92.2987 282.637 93.1733 282.637 94.24ZM316.121 112H299.161V110.816H299.257C299.982 110.816 300.494 110.667 300.793 110.368C301.092 110.048 301.262 109.675 301.305 109.248C301.348 108.821 301.369 108.053 301.369 106.944V93.248C301.369 92.3947 301.401 91.648 301.465 91.008L299.161 91.136V89.6H315.001L315.161 95.328H313.657C313.678 93.5573 313.326 92.3627 312.601 91.744C311.897 91.104 310.884 90.8053 309.561 90.848L306.809 90.912C306.105 90.9333 305.593 91.072 305.273 91.328C304.974 91.584 304.782 91.9467 304.697 92.416C304.633 92.8853 304.601 93.632 304.601 94.656V99.648L310.169 99.68L309.945 96.928H311.801V103.776H310.297C310.297 102.965 310.212 102.357 310.041 101.952C309.892 101.547 309.636 101.28 309.273 101.152C308.932 101.003 308.42 100.928 307.737 100.928L306.713 100.96L304.601 101.056V108.256C304.601 109.323 304.569 110.133 304.505 110.688L310.393 110.592C311.844 110.571 312.942 110.197 313.689 109.472C314.436 108.747 314.798 107.467 314.777 105.632H316.313L316.121 112ZM342.363 90.784H342.267C341.393 90.8053 340.827 91.0293 340.571 91.456C340.337 91.8613 340.219 92.5333 340.219 93.472V94.656L340.155 112.512H338.235L324.699 94.464L324.795 107.488C324.795 108.875 324.774 109.909 324.731 110.592L327.035 110.464V112H320.731V110.816H320.827C321.638 110.837 322.171 110.613 322.427 110.144C322.705 109.653 322.843 109.056 322.843 108.352L322.875 91.008L320.731 91.136V89.6H324.923L338.203 107.232L338.235 93.248C338.235 92.3947 338.267 91.648 338.331 91.008L336.027 91.136V89.6H342.363V90.784ZM366.706 107.744C365.469 109.515 364.04 110.752 362.418 111.456C360.797 112.139 359.144 112.48 357.458 112.48C355.304 112.48 353.384 111.979 351.698 110.976C350.013 109.952 348.701 108.576 347.762 106.848C346.824 105.12 346.354 103.221 346.354 101.152C346.354 99.104 346.781 97.1627 347.634 95.328C348.488 93.4933 349.768 92 351.474 90.848C353.202 89.696 355.272 89.12 357.682 89.12C359.944 89.12 362.013 89.6853 363.89 90.816L363.762 89.344H365.938V96.896H364.338C364.125 94.8907 363.453 93.3333 362.322 92.224C361.192 91.1147 359.72 90.56 357.906 90.56C356.434 90.56 355.09 90.976 353.874 91.808C352.658 92.64 351.698 93.8347 350.994 95.392C350.29 96.928 349.938 98.72 349.938 100.768C349.938 102.709 350.312 104.437 351.058 105.952C351.805 107.445 352.808 108.608 354.066 109.44C355.346 110.272 356.754 110.688 358.29 110.688C359.72 110.688 361.074 110.368 362.354 109.728C363.656 109.088 364.733 108.16 365.586 106.944L366.706 107.744ZM378.169 90.784C377.444 90.784 376.932 90.944 376.633 91.264C376.335 91.5627 376.164 91.9253 376.121 92.352C376.079 92.7787 376.057 93.5467 376.057 94.656V108.128C376.057 109.195 376.025 110.016 375.961 110.592L378.265 110.464V112H370.617V110.816H370.713C371.439 110.816 371.951 110.667 372.249 110.368C372.548 110.048 372.719 109.675 372.761 109.248C372.804 108.821 372.825 108.053 372.825 106.944V93.248C372.825 92.3947 372.857 91.648 372.921 91.008L370.617 91.136V89.6H378.265V90.784H378.169ZM402.04 112H394.264V110.816H394.36C395.576 110.816 396.184 110.336 396.184 109.376C396.184 109.035 396.067 108.533 395.832 107.872L394.744 104.96L386.712 105.152H386.808C386.552 105.856 386.189 106.965 385.72 108.48C385.528 109.12 385.272 109.824 384.952 110.592L387.416 110.464V112H380.984V110.816H381.08C381.571 110.837 381.965 110.741 382.264 110.528C382.584 110.293 382.84 109.984 383.032 109.6C383.224 109.216 383.459 108.629 383.736 107.84C383.757 107.755 383.875 107.424 384.088 106.848L390.712 88.928H391.864L399.032 107.104C399.608 108.64 399.885 109.803 399.864 110.592L402.04 110.464V112ZM391.992 97.632L390.744 94.176L389.592 97.312C388.845 99.36 388.099 101.472 387.352 103.648H394.232L391.992 97.632Z" fill="black"/>
<path d="M114.856 112V113H115.828L115.856 112.028L114.856 112ZM98.536 112H97.536V113H98.536V112ZM98.536 110.816V109.816H97.536V110.816H98.536ZM100.168 110.368L100.875 111.075L100.887 111.063L100.899 111.05L100.168 110.368ZM100.68 109.248L99.685 109.148H99.685L100.68 109.248ZM100.84 91.008L101.835 91.1075L101.951 89.9447L100.785 90.0095L100.84 91.008ZM98.536 91.136H97.536V92.1931L98.5915 92.1345L98.536 91.136ZM98.536 89.6V88.6H97.536V89.6H98.536ZM106.184 89.6H107.184V88.6H106.184V89.6ZM106.184 90.784V91.784H107.184V90.784H106.184ZM104.552 91.264L105.259 91.9711L105.271 91.9589L105.283 91.9463L104.552 91.264ZM103.88 110.688L102.887 110.573L102.756 111.707L103.897 111.688L103.88 110.688ZM109.64 110.592L109.624 109.592L109.623 109.592L109.64 110.592ZM112.552 109.312L111.759 108.702L111.754 108.709L111.75 108.715L112.552 109.312ZM113.512 105.248V104.248H112.512V105.248H113.512ZM115.048 105.248L116.048 105.276L116.077 104.248H115.048V105.248ZM114.856 112V111H98.536V112V113H114.856V112ZM98.536 112H99.536V110.816H98.536H97.536V112H98.536ZM98.536 110.816V111.816H98.632V110.816V109.816H98.536V110.816ZM98.632 110.816V111.816C99.445 111.816 100.293 111.658 100.875 111.075L100.168 110.368L99.4609 109.661C99.4461 109.676 99.2696 109.816 98.632 109.816V110.816ZM100.168 110.368L100.899 111.05C101.344 110.574 101.61 109.997 101.675 109.348L100.68 109.248L99.685 109.148C99.6646 109.352 99.5895 109.522 99.4369 109.686L100.168 110.368ZM100.68 109.248L101.675 109.348C101.723 108.865 101.744 108.051 101.744 106.944H100.744H99.744C99.744 108.056 99.722 108.778 99.685 109.148L100.68 109.248ZM100.744 106.944H101.744V93.248H100.744H99.744V106.944H100.744ZM100.744 93.248H101.744C101.744 92.4179 101.775 91.7058 101.835 91.1075L100.84 91.008L99.845 90.9085C99.7768 91.5902 99.744 92.3714 99.744 93.248H100.744ZM100.84 91.008L100.785 90.0095L98.4805 90.1375L98.536 91.136L98.5915 92.1345L100.895 92.0065L100.84 91.008ZM98.536 91.136H99.536V89.6H98.536H97.536V91.136H98.536ZM98.536 89.6V90.6H106.184V89.6V88.6H98.536V89.6ZM106.184 89.6H105.184V90.784H106.184H107.184V89.6H106.184ZM106.184 90.784V89.784H106.088V90.784V91.784H106.184V90.784ZM106.088 90.784V89.784C105.26 89.784 104.402 89.9595 103.821 90.5817L104.552 91.264L105.283 91.9463C105.3 91.9285 105.465 91.784 106.088 91.784V90.784ZM104.552 91.264L103.845 90.5569C103.38 91.0215 103.11 91.5999 103.045 92.2525L104.04 92.352L105.035 92.4515C105.055 92.2507 105.126 92.1039 105.259 91.9711L104.552 91.264ZM104.04 92.352L103.045 92.2525C102.997 92.7351 102.976 93.5494 102.976 94.656H103.976H104.976C104.976 93.5439 104.998 92.8223 105.035 92.4515L104.04 92.352ZM103.976 94.656H102.976V108.256H103.976H104.976V94.656H103.976ZM103.976 108.256H102.976C102.976 109.312 102.944 110.077 102.887 110.573L103.88 110.688L104.873 110.803C104.944 110.19 104.976 109.333 104.976 108.256H103.976ZM103.88 110.688L103.897 111.688L109.657 111.592L109.64 110.592L109.623 109.592L103.863 109.688L103.88 110.688ZM109.64 110.592L109.656 111.592C111.195 111.567 112.501 111.057 113.354 109.909L112.552 109.312L111.75 108.715C111.366 109.231 110.73 109.574 109.624 109.592L109.64 110.592ZM112.552 109.312L113.345 109.922C114.19 108.823 114.512 107.192 114.512 105.248H113.512H112.512C112.512 107.059 112.194 108.137 111.759 108.702L112.552 109.312ZM113.512 105.248V106.248H115.048V105.248V104.248H113.512V105.248ZM115.048 105.248L114.048 105.22L113.856 111.972L114.856 112L115.856 112.028L116.048 105.276L115.048 105.248ZM140.428 90.784V91.784H141.428V90.784H140.428ZM138.764 91.264L139.471 91.9711L139.471 91.9711L138.764 91.264ZM138.252 92.352L137.257 92.2525L137.257 92.2525L138.252 92.352ZM138.188 94.656L139.188 94.6648V94.656H138.188ZM138.124 101.92L137.124 101.911L137.124 101.913L138.124 101.92ZM136.012 109.536L136.829 110.113L136.832 110.109L136.012 109.536ZM123.788 111.264L123.272 112.12L123.788 111.264ZM120.908 107.552L119.963 107.879L120.908 107.552ZM120.172 91.008L121.169 91.0819L121.252 89.9621L120.13 90.0089L120.172 91.008ZM117.868 91.104H116.868V92.1465L117.91 92.1031L117.868 91.104ZM117.868 89.6V88.6H116.868V89.6H117.868ZM125.484 89.6H126.484V88.6H125.484V89.6ZM125.484 90.784V91.784H126.484V90.784H125.484ZM125.388 90.784L125.364 91.7837L125.376 91.784H125.388V90.784ZM123.66 91.488L122.773 91.0254L122.769 91.0331L122.766 91.0408L123.66 91.488ZM124.62 108L123.732 108.461L124.62 108ZM134.476 108.288L135.295 108.861L135.299 108.856L134.476 108.288ZM136.108 102.08L137.108 102.096L137.108 102.091L136.108 102.08ZM136.204 93.248L137.204 93.2589V93.248H136.204ZM136.3 91.008L137.295 91.1075L137.411 89.9438L136.244 90.0096L136.3 91.008ZM134.028 91.136H133.028V92.1939L134.084 92.1344L134.028 91.136ZM134.028 89.6V88.6H133.028V89.6H134.028ZM140.428 89.6H141.428V88.6H140.428V89.6ZM140.428 90.784V89.784H140.332V90.784V91.784H140.428V90.784ZM140.332 90.784V89.784C139.495 89.784 138.651 89.9632 138.057 90.5569L138.764 91.264L139.471 91.9711C139.517 91.9248 139.718 91.784 140.332 91.784V90.784ZM138.764 91.264L138.057 90.5569C137.592 91.0215 137.322 91.5999 137.257 92.2525L138.252 92.352L139.247 92.4515C139.267 92.2507 139.338 92.1039 139.471 91.9711L138.764 91.264ZM138.252 92.352L137.257 92.2525C137.209 92.7351 137.188 93.5494 137.188 94.656H138.188H139.188C139.188 93.5439 139.21 92.8223 139.247 92.4515L138.252 92.352ZM138.188 94.656L137.188 94.6472L137.124 101.911L138.124 101.92L139.124 101.929L139.188 94.6648L138.188 94.656ZM138.124 101.92L137.124 101.913C137.104 104.86 136.434 107.186 135.192 108.963L136.012 109.536L136.832 110.109C138.363 107.918 139.102 105.167 139.124 101.927L138.124 101.92ZM136.012 109.536L135.195 108.959C134.049 110.582 132.164 111.48 129.292 111.48V112.48V113.48C132.607 113.48 135.202 112.416 136.829 110.113L136.012 109.536ZM129.292 112.48V111.48C127.067 111.48 125.435 111.09 124.304 110.408L123.788 111.264L123.272 112.12C124.829 113.06 126.866 113.48 129.292 113.48V112.48ZM123.788 111.264L124.304 110.408C123.185 109.733 122.362 108.696 121.853 107.225L120.908 107.552L119.963 107.879C120.606 109.736 121.703 111.174 123.272 112.12L123.788 111.264ZM120.908 107.552L121.853 107.225C121.328 105.707 121.044 103.643 121.044 100.992H120.044H119.044C119.044 103.759 119.336 106.069 119.963 107.879L120.908 107.552ZM120.044 100.992H121.044V94.656H120.044H119.044V100.992H120.044ZM120.044 94.656H121.044C121.044 93.3981 121.086 92.2068 121.169 91.0819L120.172 91.008L119.175 90.9341C119.087 92.1132 119.044 93.3539 119.044 94.656H120.044ZM120.172 91.008L120.13 90.0089L117.826 90.1049L117.868 91.104L117.91 92.1031L120.214 92.0071L120.172 91.008ZM117.868 91.104H118.868V89.6H117.868H116.868V91.104H117.868ZM117.868 89.6V90.6H125.484V89.6V88.6H117.868V89.6ZM125.484 89.6H124.484V90.784H125.484H126.484V89.6H125.484ZM125.484 90.784V89.784H125.388V90.784V91.784H125.484V90.784ZM125.388 90.784L125.412 89.7843C124.39 89.76 123.299 90.0179 122.773 91.0254L123.66 91.488L124.547 91.9506C124.551 91.9413 124.564 91.9099 124.661 91.8701C124.779 91.8222 124.998 91.775 125.364 91.7837L125.388 90.784ZM123.66 91.488L122.766 91.0408C122.442 91.6881 122.308 92.4394 122.308 93.248H123.308H124.308C124.308 92.6486 124.409 92.2266 124.554 91.9352L123.66 91.488ZM123.308 93.248H122.308V101.152H123.308H124.308V93.248H123.308ZM123.308 101.152H122.308C122.308 104.117 122.755 106.578 123.732 108.461L124.62 108L125.508 107.539C124.735 106.051 124.308 103.947 124.308 101.152H123.308ZM124.62 108L123.732 108.461C124.836 110.587 126.959 111.528 129.708 111.528V110.528V109.528C127.422 109.528 126.154 108.784 125.508 107.539L124.62 108ZM129.708 110.528V111.528C132.104 111.528 134.029 110.67 135.295 108.861L134.476 108.288L133.657 107.715C132.832 108.892 131.579 109.528 129.708 109.528V110.528ZM134.476 108.288L135.299 108.856C136.495 107.123 137.063 104.837 137.108 102.096L136.108 102.08L135.108 102.064C135.067 104.571 134.548 106.423 133.653 107.72L134.476 108.288ZM136.108 102.08L137.108 102.091L137.204 93.2589L136.204 93.248L135.204 93.2371L135.108 102.069L136.108 102.08ZM136.204 93.248H137.204C137.204 92.4179 137.235 91.7058 137.295 91.1075L136.3 91.008L135.305 90.9085C135.237 91.5902 135.204 92.3714 135.204 93.248H136.204ZM136.3 91.008L136.244 90.0096L133.972 90.1376L134.028 91.136L134.084 92.1344L136.356 92.0064L136.3 91.008ZM134.028 91.136H135.028V89.6H134.028H133.028V91.136H134.028ZM134.028 89.6V90.6H140.428V89.6V88.6H134.028V89.6ZM140.428 89.6H139.428V90.784H140.428H141.428V89.6H140.428ZM164.363 107.744L165.182 108.317L165.749 107.506L164.944 106.93L164.363 107.744ZM160.075 111.456L160.463 112.378L160.473 112.373L160.075 111.456ZM149.354 110.976L148.835 111.831L148.843 111.835L149.354 110.976ZM145.419 106.848L146.297 106.371L145.419 106.848ZM145.291 95.328L146.197 95.7497L145.291 95.328ZM149.131 90.848L148.576 90.0159L148.571 90.0191L149.131 90.848ZM161.547 90.816L161.031 91.6726L162.713 92.6858L162.543 90.7294L161.547 90.816ZM161.419 89.344V88.344H160.328L160.422 89.4306L161.419 89.344ZM163.594 89.344H164.594V88.344H163.594V89.344ZM163.594 96.896V97.896H164.594V96.896H163.594ZM161.994 96.896L161 97.0018L161.095 97.896H161.994V96.896ZM159.979 92.224L160.679 91.5102L159.979 92.224ZM151.531 91.808L150.966 90.9827L151.531 91.808ZM148.651 95.392L149.56 95.8087L149.562 95.8039L148.651 95.392ZM148.715 105.952L147.818 106.394L147.82 106.399L148.715 105.952ZM151.722 109.44L151.171 110.274L151.178 110.278L151.722 109.44ZM160.011 109.728L159.569 108.831L159.563 108.834L160.011 109.728ZM163.243 106.944L163.824 106.13L163.003 105.544L162.424 106.37L163.243 106.944ZM164.363 107.744L163.543 107.171C162.388 108.824 161.094 109.923 159.676 110.539L160.075 111.456L160.473 112.373C162.298 111.581 163.862 110.205 165.182 108.317L164.363 107.744ZM160.075 111.456L159.686 110.534C158.182 111.168 156.661 111.48 155.115 111.48V112.48V113.48C156.939 113.48 158.724 113.11 160.463 112.378L160.075 111.456ZM155.115 112.48V111.48C153.122 111.48 151.381 111.018 149.866 110.117L149.354 110.976L148.843 111.835C150.698 112.939 152.798 113.48 155.115 113.48V112.48ZM149.354 110.976L149.874 110.121C148.339 109.189 147.151 107.943 146.297 106.371L145.419 106.848L144.54 107.325C145.563 109.209 146.999 110.715 148.835 111.831L149.354 110.976ZM145.419 106.848L146.297 106.371C145.442 104.797 145.011 103.064 145.011 101.152H144.011H143.011C143.011 103.379 143.517 105.443 144.54 107.325L145.419 106.848ZM144.011 101.152H145.011C145.011 99.2479 145.406 97.4506 146.197 95.7497L145.291 95.328L144.384 94.9063C143.468 96.8747 143.011 98.9601 143.011 101.152H144.011ZM145.291 95.328L146.197 95.7497C146.973 94.0828 148.131 92.7291 149.69 91.6768L149.131 90.848L148.571 90.0191C146.717 91.2709 145.315 92.9038 144.384 94.9063L145.291 95.328ZM149.131 90.848L149.685 91.68C151.224 90.6543 153.093 90.12 155.339 90.12V89.12V88.12C152.763 88.12 150.493 88.7377 148.576 90.0159L149.131 90.848ZM155.339 89.12V90.12C157.424 90.12 159.314 90.6389 161.031 91.6726L161.547 90.816L162.062 89.9594C160.024 88.7318 157.776 88.12 155.339 88.12V89.12ZM161.547 90.816L162.543 90.7294L162.415 89.2574L161.419 89.344L160.422 89.4306L160.55 90.9026L161.547 90.816ZM161.419 89.344V90.344H163.594V89.344V88.344H161.419V89.344ZM163.594 89.344H162.594V96.896H163.594H164.594V89.344H163.594ZM163.594 96.896V95.896H161.994V96.896V97.896H163.594V96.896ZM161.994 96.896L162.989 96.7902C162.758 94.6185 162.016 92.8221 160.679 91.5102L159.979 92.224L159.278 92.9378C160.202 93.8445 160.804 95.1628 161 97.0018L161.994 96.896ZM159.979 92.224L160.679 91.5102C159.334 90.1905 157.597 89.56 155.562 89.56V90.56V91.56C157.155 91.56 158.362 92.0388 159.278 92.9378L159.979 92.224ZM155.562 90.56V89.56C153.889 89.56 152.348 90.037 150.966 90.9827L151.531 91.808L152.095 92.6333C153.145 91.915 154.292 91.56 155.562 91.56V90.56ZM151.531 91.808L150.966 90.9827C149.576 91.9338 148.506 93.2829 147.739 94.9801L148.651 95.392L149.562 95.8039C150.203 94.3864 151.053 93.3462 152.095 92.6333L151.531 91.808ZM148.651 95.392L147.741 94.9753C146.966 96.6668 146.595 98.6061 146.595 100.768H147.595H148.595C148.595 98.8339 148.927 97.1892 149.56 95.8087L148.651 95.392ZM147.595 100.768H146.595C146.595 102.84 146.994 104.723 147.818 106.394L148.715 105.952L149.611 105.51C148.942 104.152 148.595 102.579 148.595 100.768H147.595ZM148.715 105.952L147.82 106.399C148.637 108.032 149.751 109.335 151.171 110.274L151.722 109.44L152.274 108.606C151.177 107.881 150.286 106.858 149.609 105.505L148.715 105.952ZM151.722 109.44L151.178 110.278C152.621 111.217 154.218 111.688 155.947 111.688V110.688V109.688C154.603 109.688 153.384 109.327 152.267 108.602L151.722 109.44ZM155.947 110.688V111.688C157.531 111.688 159.039 111.332 160.458 110.622L160.011 109.728L159.563 108.834C158.422 109.404 157.22 109.688 155.947 109.688V110.688ZM160.011 109.728L160.452 110.625C161.908 109.909 163.114 108.869 164.061 107.518L163.243 106.944L162.424 106.37C161.665 107.451 160.716 108.267 159.569 108.831L160.011 109.728ZM163.243 106.944L162.661 107.758L163.781 108.558L164.363 107.744L164.944 106.93L163.824 106.13L163.243 106.944ZM185.234 112V113H186.204L186.233 112.03L185.234 112ZM168.274 112H167.274V113H168.274V112ZM168.274 110.816V109.816H167.274V110.816H168.274ZM169.906 110.368L170.613 111.075L170.625 111.063L170.637 111.05L169.906 110.368ZM170.418 109.248L169.422 109.148L170.418 109.248ZM170.577 91.008L171.573 91.1075L171.689 89.9447L170.522 90.0095L170.577 91.008ZM168.274 91.136H167.274V92.1931L168.329 92.1345L168.274 91.136ZM168.274 89.6V88.6H167.274V89.6H168.274ZM184.114 89.6L185.113 89.5721L185.086 88.6H184.114V89.6ZM184.274 95.328V96.328H185.302L185.273 95.3001L184.274 95.328ZM182.77 95.328L181.77 95.316L181.757 96.328H182.77V95.328ZM181.714 91.744L181.041 92.4839L181.053 92.4946L181.065 92.5048L181.714 91.744ZM178.674 90.848L178.697 91.8478L178.706 91.8475L178.674 90.848ZM175.922 90.912L175.898 89.9122L175.891 89.9125L175.922 90.912ZM174.386 91.328L173.761 90.5471L173.748 90.5577L173.735 90.5687L174.386 91.328ZM173.81 92.416L172.826 92.2371L172.822 92.2589L172.819 92.2809L173.81 92.416ZM173.714 99.648H172.714V100.642L173.708 100.648L173.714 99.648ZM179.282 99.68L179.276 100.68L180.367 100.686L180.278 99.5989L179.282 99.68ZM179.058 96.928V95.928H177.973L178.061 97.0091L179.058 96.928ZM180.914 96.928H181.914V95.928H180.914V96.928ZM180.914 103.776V104.776H181.914V103.776H180.914ZM179.41 103.776H178.41V104.776H179.41V103.776ZM179.154 101.952L178.215 102.298L178.223 102.319L178.232 102.34L179.154 101.952ZM178.386 101.152L177.985 102.068L178.018 102.083L178.053 102.095L178.386 101.152ZM176.85 100.928V99.928H176.834L176.818 99.9285L176.85 100.928ZM175.826 100.96L175.794 99.9605L175.787 99.9607L175.78 99.961L175.826 100.96ZM173.714 101.056L173.668 100.057L172.714 100.1V101.056H173.714ZM173.618 110.688L172.624 110.573L172.493 111.706L173.634 111.688L173.618 110.688ZM179.506 110.592L179.491 109.592L179.489 109.592L179.506 110.592ZM182.802 109.472L183.498 110.189L182.802 109.472ZM183.89 105.632V104.632H182.878L182.89 105.644L183.89 105.632ZM185.426 105.632L186.425 105.662L186.456 104.632H185.426V105.632ZM185.234 112V111H168.274V112V113H185.234V112ZM168.274 112H169.274V110.816H168.274H167.274V112H168.274ZM168.274 110.816V111.816H168.37V110.816V109.816H168.274V110.816ZM168.37 110.816V111.816C169.183 111.816 170.03 111.658 170.613 111.075L169.906 110.368L169.198 109.661C169.184 109.676 169.007 109.816 168.37 109.816V110.816ZM169.906 110.368L170.637 111.05C171.081 110.574 171.348 109.997 171.413 109.348L170.418 109.248L169.422 109.148C169.402 109.352 169.327 109.522 169.174 109.686L169.906 110.368ZM170.418 109.248L171.413 109.348C171.461 108.865 171.482 108.051 171.482 106.944H170.482H169.482C169.482 108.056 169.46 108.778 169.422 109.148L170.418 109.248ZM170.482 106.944H171.482V93.248H170.482H169.482V106.944H170.482ZM170.482 93.248H171.482C171.482 92.4179 171.513 91.7058 171.573 91.1075L170.577 91.008L169.582 90.9085C169.514 91.5902 169.482 92.3714 169.482 93.248H170.482ZM170.577 91.008L170.522 90.0095L168.218 90.1375L168.274 91.136L168.329 92.1345L170.633 92.0065L170.577 91.008ZM168.274 91.136H169.274V89.6H168.274H167.274V91.136H168.274ZM168.274 89.6V90.6H184.114V89.6V88.6H168.274V89.6ZM184.114 89.6L183.114 89.6279L183.274 95.3559L184.274 95.328L185.273 95.3001L185.113 89.5721L184.114 89.6ZM184.274 95.328V94.328H182.77V95.328V96.328H184.274V95.328ZM182.77 95.328L183.769 95.34C183.792 93.5081 183.446 91.9078 182.362 90.9832L181.714 91.744L181.065 92.5048C181.431 92.8175 181.79 93.6065 181.77 95.316L182.77 95.328ZM181.714 91.744L182.386 91.0041C181.425 90.1305 180.121 89.8008 178.641 89.8485L178.674 90.848L178.706 91.8475C179.871 91.8099 180.594 92.0775 181.041 92.4839L181.714 91.744ZM178.674 90.848L178.65 89.8483L175.898 89.9123L175.922 90.912L175.945 91.9117L178.697 91.8477L178.674 90.848ZM175.922 90.912L175.891 89.9125C175.11 89.9361 174.334 90.0887 173.761 90.5471L174.386 91.328L175.01 92.1089C175.077 92.0553 175.325 91.9305 175.952 91.9115L175.922 90.912ZM174.386 91.328L173.735 90.5687C173.227 91.0041 172.943 91.5916 172.826 92.2371L173.81 92.416L174.793 92.5949C174.847 92.3018 174.947 92.1639 175.036 92.0873L174.386 91.328ZM173.81 92.416L172.819 92.2809C172.745 92.8219 172.714 93.6262 172.714 94.656H173.714H174.714C174.714 93.6378 174.746 92.9487 174.8 92.5511L173.81 92.416ZM173.714 94.656H172.714V99.648H173.714H174.714V94.656H173.714ZM173.714 99.648L173.708 100.648L179.276 100.68L179.282 99.68L179.287 98.68L173.719 98.648L173.714 99.648ZM179.282 99.68L180.278 99.5989L180.054 96.8469L179.058 96.928L178.061 97.0091L178.285 99.7611L179.282 99.68ZM179.058 96.928V97.928H180.914V96.928V95.928H179.058V96.928ZM180.914 96.928H179.914V103.776H180.914H181.914V96.928H180.914ZM180.914 103.776V102.776H179.41V103.776V104.776H180.914V103.776ZM179.41 103.776H180.41C180.41 102.925 180.324 102.156 180.075 101.564L179.154 101.952L178.232 102.34C178.324 102.559 178.41 103.005 178.41 103.776H179.41ZM179.154 101.952L180.092 101.606C179.854 100.96 179.398 100.449 178.718 100.209L178.386 101.152L178.053 102.095C178.098 102.111 178.154 102.133 178.215 102.298L179.154 101.952ZM178.386 101.152L178.786 100.236C178.253 100.003 177.574 99.928 176.85 99.928V100.928V101.928C177.49 101.928 177.835 102.003 177.985 102.068L178.386 101.152ZM176.85 100.928L176.818 99.9285L175.794 99.9605L175.826 100.96L175.857 101.96L176.881 101.928L176.85 100.928ZM175.826 100.96L175.78 99.961L173.668 100.057L173.714 101.056L173.759 102.055L175.871 101.959L175.826 100.96ZM173.714 101.056H172.714V108.256H173.714H174.714V101.056H173.714ZM173.714 108.256H172.714C172.714 109.312 172.681 110.077 172.624 110.573L173.618 110.688L174.611 110.803C174.682 110.19 174.714 109.333 174.714 108.256H173.714ZM173.618 110.688L173.634 111.688L179.522 111.592L179.506 110.592L179.489 109.592L173.601 109.688L173.618 110.688ZM179.506 110.592L179.52 111.592C181.125 111.568 182.507 111.152 183.498 110.189L182.802 109.472L182.105 108.755C181.603 109.242 180.788 109.573 179.491 109.592L179.506 110.592ZM182.802 109.472L183.498 110.189C184.547 109.17 184.912 107.535 184.889 105.62L183.89 105.632L182.89 105.644C182.91 107.398 182.549 108.323 182.105 108.755L182.802 109.472ZM183.89 105.632V106.632H185.426V105.632V104.632H183.89V105.632ZM185.426 105.632L184.426 105.602L184.234 111.97L185.234 112L186.233 112.03L186.425 105.662L185.426 105.632ZM216.742 96.48L215.742 96.4956L215.757 97.48H216.742V96.48ZM216.357 93.248L215.39 93.5025L215.394 93.5178L215.399 93.533L216.357 93.248ZM215.174 91.456L214.604 92.2782L214.612 92.2832L214.619 92.288L215.174 91.456ZM210.31 90.88V89.88H209.311L209.31 90.8781L210.31 90.88ZM210.277 108.128L209.277 108.126V108.128H210.277ZM210.182 110.592L209.188 110.482L209.058 111.647L210.23 111.591L210.182 110.592ZM212.838 110.464H213.838V109.415L212.789 109.465L212.838 110.464ZM212.838 112V113H213.838V112H212.838ZM204.869 112H203.869V113H204.869V112ZM204.869 110.816V109.816H203.869V110.816H204.869ZM204.965 110.816V111.816H204.978L204.99 111.816L204.965 110.816ZM206.661 110.112L205.793 109.616L206.661 110.112ZM207.046 106.944L206.046 106.942V106.944H207.046ZM207.077 90.912L208.077 90.914L208.08 89.9015L207.067 89.9121L207.077 90.912ZM204.006 90.944V91.9441L204.016 91.9439L204.006 90.944ZM201.35 92.256L202.203 92.7766L201.35 92.256ZM200.549 96.48V97.48H201.549V96.48H200.549ZM198.918 96.48L197.918 96.4521L197.889 97.48H198.918V96.48ZM199.109 89.6V88.6H198.137L198.11 89.5721L199.109 89.6ZM218.214 89.6L219.213 89.5721L219.186 88.6H218.214V89.6ZM218.406 96.48V97.48H219.434L219.405 96.4521L218.406 96.48ZM216.742 96.48L217.741 96.4644C217.719 95.0593 217.588 93.8783 217.316 92.963L216.357 93.248L215.399 93.533C215.596 94.1964 215.721 95.1701 215.742 96.4956L216.742 96.48ZM216.357 93.248L217.325 92.9935C217.063 91.9987 216.549 91.1708 215.728 90.624L215.174 91.456L214.619 92.288C214.95 92.5092 215.226 92.876 215.39 93.5025L216.357 93.248ZM215.174 91.456L215.743 90.6338C214.955 90.0883 213.934 89.88 212.806 89.88V90.88V91.88C213.725 91.88 214.283 92.0557 214.604 92.2782L215.174 91.456ZM212.806 90.88V89.88H210.31V90.88V91.88H212.806V90.88ZM210.31 90.88L209.31 90.8781L209.278 108.126L210.277 108.128L211.277 108.13L211.31 90.8819L210.31 90.88ZM210.277 108.128H209.277C209.277 109.183 209.245 109.961 209.188 110.482L210.182 110.592L211.175 110.702C211.246 110.071 211.277 109.206 211.277 108.128H210.277ZM210.182 110.592L210.23 111.591L212.886 111.463L212.838 110.464L212.789 109.465L210.133 109.593L210.182 110.592ZM212.838 110.464H211.838V112H212.838H213.838V110.464H212.838ZM212.838 112V111H204.869V112V113H212.838V112ZM204.869 112H205.869V110.816H204.869H203.869V112H204.869ZM204.869 110.816V111.816H204.965V110.816V109.816H204.869V110.816ZM204.965 110.816L204.99 111.816C205.966 111.792 207.005 111.527 207.53 110.608L206.661 110.112L205.793 109.616C205.791 109.62 205.786 109.627 205.772 109.639C205.757 109.652 205.724 109.675 205.662 109.7C205.531 109.755 205.304 109.807 204.941 109.816L204.965 110.816ZM206.661 110.112L207.53 110.608C207.92 109.926 208.046 108.992 208.046 107.968H207.046H206.046C206.046 108.906 205.915 109.402 205.793 109.616L206.661 110.112ZM207.046 107.968H208.046V106.944H207.046H206.046V107.968H207.046ZM207.046 106.944L208.046 106.946L208.077 90.914L207.077 90.912L206.077 90.91L206.046 106.942L207.046 106.944ZM207.077 90.912L207.067 89.9121L203.995 89.9441L204.006 90.944L204.016 91.9439L207.088 91.9119L207.077 90.912ZM204.006 90.944V89.944C202.504 89.944 201.251 90.4973 200.496 91.7354L201.35 92.256L202.203 92.7766C202.515 92.2653 203.032 91.944 204.006 91.944V90.944ZM201.35 92.256L200.496 91.7354C199.814 92.8534 199.549 94.4933 199.549 96.48H200.549H201.549C201.549 94.5841 201.818 93.408 202.203 92.7766L201.35 92.256ZM200.549 96.48V95.48H198.918V96.48V97.48H200.549V96.48ZM198.918 96.48L199.917 96.5079L200.109 89.6279L199.109 89.6L198.11 89.5721L197.918 96.4521L198.918 96.48ZM199.109 89.6V90.6H218.214V89.6V88.6H199.109V89.6ZM218.214 89.6L217.214 89.6279L217.406 96.5079L218.406 96.48L219.405 96.4521L219.213 89.5721L218.214 89.6ZM218.406 96.48V95.48H216.742V96.48V97.48H218.406V96.48ZM243.834 90.784V91.784H244.834V90.784H243.834ZM242.17 91.264L242.877 91.9711L242.877 91.9711L242.17 91.264ZM241.658 92.352L240.663 92.2525V92.2525L241.658 92.352ZM241.594 94.656L242.594 94.6648V94.656H241.594ZM241.53 101.92L240.53 101.911L240.53 101.913L241.53 101.92ZM239.418 109.536L240.235 110.113L240.238 110.109L239.418 109.536ZM227.194 111.264L226.678 112.12L227.194 111.264ZM224.314 107.552L223.369 107.879L224.314 107.552ZM223.578 91.008L224.576 91.0819L224.658 89.9621L223.537 90.0089L223.578 91.008ZM221.274 91.104H220.274V92.1465L221.316 92.1031L221.274 91.104ZM221.274 89.6V88.6H220.274V89.6H221.274ZM228.89 89.6H229.89V88.6H228.89V89.6ZM228.89 90.784V91.784H229.89V90.784H228.89ZM228.794 90.784L228.77 91.7837L228.782 91.784H228.794V90.784ZM227.066 91.488L226.18 91.0254L226.176 91.0331L226.172 91.0408L227.066 91.488ZM228.026 108L227.139 108.461L228.026 108ZM237.882 108.288L238.701 108.861L238.705 108.856L237.882 108.288ZM239.514 102.08L240.514 102.096L240.514 102.091L239.514 102.08ZM239.61 93.248L240.61 93.2589V93.248H239.61ZM239.706 91.008L240.701 91.1075L240.818 89.9438L239.65 90.0096L239.706 91.008ZM237.434 91.136H236.434V92.1939L237.49 92.1344L237.434 91.136ZM237.434 89.6V88.6H236.434V89.6H237.434ZM243.834 89.6H244.834V88.6H243.834V89.6ZM243.834 90.784V89.784H243.738V90.784V91.784H243.834V90.784ZM243.738 90.784V89.784C242.901 89.784 242.057 89.9632 241.463 90.5569L242.17 91.264L242.877 91.9711C242.924 91.9248 243.124 91.784 243.738 91.784V90.784ZM242.17 91.264L241.463 90.5569C240.999 91.0215 240.728 91.5999 240.663 92.2525L241.658 92.352L242.653 92.4515C242.673 92.2507 242.745 92.1039 242.877 91.9711L242.17 91.264ZM241.658 92.352L240.663 92.2525C240.615 92.7351 240.594 93.5494 240.594 94.656H241.594H242.594C242.594 93.5439 242.616 92.8223 242.653 92.4515L241.658 92.352ZM241.594 94.656L240.594 94.6472L240.53 101.911L241.53 101.92L242.53 101.929L242.594 94.6648L241.594 94.656ZM241.53 101.92L240.53 101.913C240.51 104.86 239.841 107.186 238.599 108.963L239.418 109.536L240.238 110.109C241.769 107.918 242.508 105.167 242.53 101.927L241.53 101.92ZM239.418 109.536L238.602 108.959C237.455 110.582 235.57 111.48 232.698 111.48V112.48V113.48C236.013 113.48 238.608 112.416 240.235 110.113L239.418 109.536ZM232.698 112.48V111.48C230.473 111.48 228.841 111.09 227.711 110.408L227.194 111.264L226.678 112.12C228.235 113.06 230.273 113.48 232.698 113.48V112.48ZM227.194 111.264L227.711 110.408C226.592 109.733 225.769 108.696 225.259 107.225L224.314 107.552L223.369 107.879C224.012 109.736 225.109 111.174 226.678 112.12L227.194 111.264ZM224.314 107.552L225.259 107.225C224.734 105.707 224.45 103.643 224.45 100.992H223.45H222.45C222.45 103.759 222.743 106.069 223.369 107.879L224.314 107.552ZM223.45 100.992H224.45V94.656H223.45H222.45V100.992H223.45ZM223.45 94.656H224.45C224.45 93.3981 224.492 92.2068 224.576 91.0819L223.578 91.008L222.581 90.9341C222.494 92.1132 222.45 93.3539 222.45 94.656H223.45ZM223.578 91.008L223.537 90.0089L221.233 90.1049L221.274 91.104L221.316 92.1031L223.62 92.0071L223.578 91.008ZM221.274 91.104H222.274V89.6H221.274H220.274V91.104H221.274ZM221.274 89.6V90.6H228.89V89.6V88.6H221.274V89.6ZM228.89 89.6H227.89V90.784H228.89H229.89V89.6H228.89ZM228.89 90.784V89.784H228.794V90.784V91.784H228.89V90.784ZM228.794 90.784L228.818 89.7843C227.797 89.76 226.705 90.0179 226.18 91.0254L227.066 91.488L227.953 91.9506C227.958 91.9413 227.97 91.9099 228.068 91.8701C228.185 91.8222 228.404 91.775 228.77 91.7837L228.794 90.784ZM227.066 91.488L226.172 91.0408C225.848 91.6881 225.714 92.4394 225.714 93.248H226.714H227.714C227.714 92.6486 227.815 92.2266 227.961 91.9352L227.066 91.488ZM226.714 93.248H225.714V101.152H226.714H227.714V93.248H226.714ZM226.714 101.152H225.714C225.714 104.117 226.162 106.578 227.139 108.461L228.026 108L228.914 107.539C228.141 106.051 227.714 103.947 227.714 101.152H226.714ZM228.026 108L227.139 108.461C228.242 110.587 230.365 111.528 233.114 111.528V110.528V109.528C230.829 109.528 229.56 108.784 228.914 107.539L228.026 108ZM233.114 110.528V111.528C235.51 111.528 237.435 110.67 238.701 108.861L237.882 108.288L237.063 107.715C236.239 108.892 234.985 109.528 233.114 109.528V110.528ZM237.882 108.288L238.705 108.856C239.901 107.123 240.47 104.837 240.514 102.096L239.514 102.08L238.514 102.064C238.474 104.571 237.954 106.423 237.059 107.72L237.882 108.288ZM239.514 102.08L240.514 102.091L240.61 93.2589L239.61 93.248L238.61 93.2371L238.514 102.069L239.514 102.08ZM239.61 93.248H240.61C240.61 92.4179 240.641 91.7058 240.701 91.1075L239.706 91.008L238.711 90.9085C238.643 91.5902 238.61 92.3714 238.61 93.248H239.61ZM239.706 91.008L239.65 90.0096L237.378 90.1376L237.434 91.136L237.49 92.1344L239.762 92.0064L239.706 91.008ZM237.434 91.136H238.434V89.6H237.434H236.434V91.136H237.434ZM237.434 89.6V90.6H243.834V89.6V88.6H237.434V89.6ZM243.834 89.6H242.834V90.784H243.834H244.834V89.6H243.834ZM274.859 112V113H275.829L275.858 112.03L274.859 112ZM257.898 112H256.898V113H257.898V112ZM257.898 110.816V109.816H256.898V110.816H257.898ZM259.531 110.368L260.238 111.075L260.25 111.063L260.262 111.05L259.531 110.368ZM260.042 109.248L259.047 109.148L260.042 109.248ZM260.202 91.008L261.198 91.1075L261.314 89.9447L260.147 90.0095L260.202 91.008ZM257.898 91.136H256.898V92.1931L257.954 92.1345L257.898 91.136ZM257.898 89.6V88.6H256.898V89.6H257.898ZM273.739 89.6L274.738 89.5721L274.711 88.6H273.739V89.6ZM273.898 95.328V96.328H274.927L274.898 95.3001L273.898 95.328ZM272.395 95.328L271.395 95.316L271.382 96.328H272.395V95.328ZM271.339 91.744L270.666 92.4839L270.678 92.4946L270.69 92.5048L271.339 91.744ZM268.299 90.848L268.322 91.8478L268.331 91.8475L268.299 90.848ZM265.547 90.912L265.523 89.9122L265.516 89.9125L265.547 90.912ZM264.01 91.328L263.386 90.5471L263.373 90.5577L263.36 90.5687L264.01 91.328ZM263.435 92.416L262.451 92.2371L262.447 92.2589L262.444 92.2809L263.435 92.416ZM263.339 99.648H262.339V100.642L263.333 100.648L263.339 99.648ZM268.907 99.68L268.901 100.68L269.992 100.686L269.903 99.5989L268.907 99.68ZM268.683 96.928V95.928H267.598L267.686 97.0091L268.683 96.928ZM270.538 96.928H271.538V95.928H270.538V96.928ZM270.538 103.776V104.776H271.538V103.776H270.538ZM269.035 103.776H268.035V104.776H269.035V103.776ZM268.779 101.952L267.84 102.298L267.848 102.319L267.857 102.34L268.779 101.952ZM268.01 101.152L267.61 102.068L267.643 102.083L267.678 102.095L268.01 101.152ZM266.475 100.928V99.928H266.459L266.443 99.9285L266.475 100.928ZM265.451 100.96L265.419 99.9605L265.412 99.9607L265.405 99.961L265.451 100.96ZM263.339 101.056L263.293 100.057L262.339 100.1V101.056H263.339ZM263.243 110.688L262.249 110.573L262.118 111.706L263.259 111.688L263.243 110.688ZM269.131 110.592L269.116 109.592L269.114 109.592L269.131 110.592ZM272.426 109.472L273.123 110.189L272.426 109.472ZM273.514 105.632V104.632H272.503L272.515 105.644L273.514 105.632ZM275.051 105.632L276.05 105.662L276.081 104.632H275.051V105.632ZM274.859 112V111H257.898V112V113H274.859V112ZM257.898 112H258.898V110.816H257.898H256.898V112H257.898ZM257.898 110.816V111.816H257.995V110.816V109.816H257.898V110.816ZM257.995 110.816V111.816C258.808 111.816 259.655 111.658 260.238 111.075L259.531 110.368L258.823 109.661C258.809 109.676 258.632 109.816 257.995 109.816V110.816ZM259.531 110.368L260.262 111.05C260.706 110.574 260.973 109.997 261.038 109.348L260.042 109.248L259.047 109.148C259.027 109.352 258.952 109.522 258.799 109.686L259.531 110.368ZM260.042 109.248L261.038 109.348C261.086 108.865 261.107 108.051 261.107 106.944H260.107H259.107C259.107 108.056 259.085 108.778 259.047 109.148L260.042 109.248ZM260.107 106.944H261.107V93.248H260.107H259.107V106.944H260.107ZM260.107 93.248H261.107C261.107 92.4179 261.138 91.7058 261.198 91.1075L260.202 91.008L259.207 90.9085C259.139 91.5902 259.107 92.3714 259.107 93.248H260.107ZM260.202 91.008L260.147 90.0095L257.843 90.1375L257.898 91.136L257.954 92.1345L260.258 92.0065L260.202 91.008ZM257.898 91.136H258.898V89.6H257.898H256.898V91.136H257.898ZM257.898 89.6V90.6H273.739V89.6V88.6H257.898V89.6ZM273.739 89.6L272.739 89.6279L272.899 95.3559L273.898 95.328L274.898 95.3001L274.738 89.5721L273.739 89.6ZM273.898 95.328V94.328H272.395V95.328V96.328H273.898V95.328ZM272.395 95.328L273.394 95.34C273.417 93.5081 273.071 91.9078 271.987 90.9832L271.339 91.744L270.69 92.5048C271.056 92.8175 271.415 93.6065 271.395 95.316L272.395 95.328ZM271.339 91.744L272.011 91.0041C271.05 90.1305 269.746 89.8008 268.266 89.8485L268.299 90.848L268.331 91.8475C269.496 91.8099 270.219 92.0775 270.666 92.4839L271.339 91.744ZM268.299 90.848L268.275 89.8483L265.523 89.9123L265.547 90.912L265.57 91.9117L268.322 91.8477L268.299 90.848ZM265.547 90.912L265.516 89.9125C264.735 89.9361 263.959 90.0887 263.386 90.5471L264.01 91.328L264.635 92.1089C264.702 92.0553 264.95 91.9305 265.577 91.9115L265.547 90.912ZM264.01 91.328L263.36 90.5687C262.852 91.0041 262.568 91.5916 262.451 92.2371L263.435 92.416L264.418 92.5949C264.472 92.3018 264.572 92.1639 264.661 92.0873L264.01 91.328ZM263.435 92.416L262.444 92.2809C262.37 92.8219 262.339 93.6262 262.339 94.656H263.339H264.339C264.339 93.6378 264.371 92.9487 264.425 92.5511L263.435 92.416ZM263.339 94.656H262.339V99.648H263.339H264.339V94.656H263.339ZM263.339 99.648L263.333 100.648L268.901 100.68L268.907 99.68L268.912 98.68L263.344 98.648L263.339 99.648ZM268.907 99.68L269.903 99.5989L269.679 96.8469L268.683 96.928L267.686 97.0091L267.91 99.7611L268.907 99.68ZM268.683 96.928V97.928H270.538V96.928V95.928H268.683V96.928ZM270.538 96.928H269.538V103.776H270.538H271.538V96.928H270.538ZM270.538 103.776V102.776H269.035V103.776V104.776H270.538V103.776ZM269.035 103.776H270.035C270.035 102.925 269.949 102.156 269.7 101.564L268.779 101.952L267.857 102.34C267.949 102.559 268.035 103.005 268.035 103.776H269.035ZM268.779 101.952L269.717 101.606C269.479 100.96 269.023 100.449 268.343 100.209L268.01 101.152L267.678 102.095C267.723 102.111 267.779 102.133 267.84 102.298L268.779 101.952ZM268.01 101.152L268.411 100.236C267.878 100.003 267.199 99.928 266.475 99.928V100.928V101.928C267.115 101.928 267.46 102.003 267.61 102.068L268.01 101.152ZM266.475 100.928L266.443 99.9285L265.419 99.9605L265.451 100.96L265.482 101.96L266.506 101.928L266.475 100.928ZM265.451 100.96L265.405 99.961L263.293 100.057L263.339 101.056L263.384 102.055L265.496 101.959L265.451 100.96ZM263.339 101.056H262.339V108.256H263.339H264.339V101.056H263.339ZM263.339 108.256H262.339C262.339 109.312 262.306 110.077 262.249 110.573L263.243 110.688L264.236 110.803C264.307 110.19 264.339 109.333 264.339 108.256H263.339ZM263.243 110.688L263.259 111.688L269.147 111.592L269.131 110.592L269.114 109.592L263.226 109.688L263.243 110.688ZM269.131 110.592L269.145 111.592C270.75 111.568 272.132 111.152 273.123 110.189L272.426 109.472L271.73 108.755C271.228 109.242 270.413 109.573 269.116 109.592L269.131 110.592ZM272.426 109.472L273.123 110.189C274.172 109.17 274.537 107.535 274.514 105.62L273.514 105.632L272.515 105.644C272.535 107.398 272.174 108.323 271.73 108.755L272.426 109.472ZM273.514 105.632V106.632H275.051V105.632V104.632H273.514V105.632ZM275.051 105.632L274.051 105.602L273.859 111.97L274.859 112L275.858 112.03L276.05 105.662L275.051 105.632ZM283.341 96.384L282.554 97.0018L282.561 97.0104L282.568 97.0187L283.341 96.384ZM285.133 97.888L284.634 98.7546L284.649 98.7635L284.665 98.7718L285.133 97.888ZM288.077 99.264L288.475 98.3469L288.473 98.3457L288.077 99.264ZM291.597 101.024L291.076 101.878L291.088 101.885L291.101 101.892L291.597 101.024ZM293.869 103.104L293.052 103.681L293.06 103.693L293.069 103.704L293.869 103.104ZM293.901 109.472L293.066 108.922L293.063 108.926L293.901 109.472ZM291.245 111.648L290.831 110.738L290.825 110.741L291.245 111.648ZM284.269 112.064L284.521 111.096L284.511 111.094L284.501 111.091L284.269 112.064ZM281.677 111.072L282.173 110.204L280.459 109.224L280.683 111.186L281.677 111.072ZM281.805 112.192V113.192H282.926L282.798 112.078L281.805 112.192ZM279.693 112.192L278.693 112.22L278.72 113.192H279.693V112.192ZM279.501 105.248V104.248H278.473L278.501 105.276L279.501 105.248ZM281.197 105.248L282.196 105.202L282.152 104.248H281.197V105.248ZM282.989 109.504L283.651 108.755L282.989 109.504ZM290.381 109.952L291.015 110.725L291.021 110.72L291.027 110.715L290.381 109.952ZM290.893 104.768L290.099 105.376L290.104 105.383L290.109 105.389L290.893 104.768ZM289.069 103.2L288.562 104.062L288.571 104.068L288.581 104.073L289.069 103.2ZM286.093 101.728L286.496 100.813L286.495 100.812L286.093 101.728ZM282.669 100.032L282.164 100.895L282.669 100.032ZM280.461 98.016L279.641 98.5895L279.648 98.5992L280.461 98.016ZM280.173 92.288L281.076 92.7171L281.08 92.7085L280.173 92.288ZM282.285 90.08L282.797 90.9391L282.803 90.9351L282.81 90.931L282.285 90.08ZM289.005 89.472L289.226 88.4969L289.005 89.472ZM291.597 90.528L291.069 91.3773L292.764 92.4307L292.593 90.4426L291.597 90.528ZM291.501 89.408V88.408H290.411L290.504 89.4934L291.501 89.408ZM293.581 89.408H294.581V88.408H293.581V89.408ZM293.581 96.576V97.576H294.581V96.576H293.581ZM291.981 96.576L290.982 96.6259L291.029 97.576H291.981V96.576ZM290.445 92.288L291.22 91.6563L290.445 92.288ZM283.661 91.616L284.368 92.3231L284.373 92.3177L284.379 92.3121L283.661 91.616ZM282.637 94.24H281.637C281.637 95.2734 281.933 96.2113 282.554 97.0018L283.341 96.384L284.127 95.7662C283.81 95.3621 283.637 94.8706 283.637 94.24H282.637ZM283.341 96.384L282.568 97.0187C283.139 97.7139 283.831 98.2922 284.634 98.7546L285.133 97.888L285.632 97.0214C285.027 96.6731 284.524 96.2487 284.113 95.7493L283.341 96.384ZM285.133 97.888L284.665 98.7718C285.424 99.1736 286.432 99.6442 287.681 100.182L288.077 99.264L288.473 98.3457C287.246 97.8171 286.292 97.3704 285.601 97.0042L285.133 97.888ZM288.077 99.264L287.678 100.181C289.129 100.812 290.256 101.378 291.076 101.878L291.597 101.024L292.117 100.17C291.188 99.6036 289.969 98.9962 288.475 98.3469L288.077 99.264ZM291.597 101.024L291.101 101.892C291.865 102.329 292.515 102.921 293.052 103.681L293.869 103.104L294.685 102.527C293.986 101.537 293.12 100.743 292.093 100.156L291.597 101.024ZM293.869 103.104L293.069 103.704C293.555 104.352 293.829 105.196 293.829 106.304H294.829H295.829C295.829 104.852 295.463 103.563 294.669 102.504L293.869 103.104ZM294.829 106.304H293.829C293.829 107.291 293.572 108.154 293.066 108.922L293.901 109.472L294.736 110.022C295.467 108.913 295.829 107.664 295.829 106.304H294.829ZM293.901 109.472L293.063 108.926C292.586 109.658 291.862 110.269 290.831 110.738L291.245 111.648L291.659 112.558C292.974 111.96 294.02 111.121 294.739 110.018L293.901 109.472ZM291.245 111.648L290.825 110.741C289.834 111.199 288.608 111.448 287.117 111.448V112.448V113.448C288.825 113.448 290.352 113.163 291.665 112.555L291.245 111.648ZM287.117 112.448V111.448C286.293 111.448 285.429 111.333 284.521 111.096L284.269 112.064L284.016 113.032C285.072 113.307 286.106 113.448 287.117 113.448V112.448ZM284.269 112.064L284.501 111.091C283.597 110.875 282.824 110.576 282.173 110.204L281.677 111.072L281.181 111.94C282.023 112.421 282.978 112.784 284.036 113.037L284.269 112.064ZM281.677 111.072L280.683 111.186L280.811 112.306L281.805 112.192L282.798 112.078L282.67 110.958L281.677 111.072ZM281.805 112.192V111.192H279.693V112.192V113.192H281.805V112.192ZM279.693 112.192L280.692 112.164L280.5 105.22L279.501 105.248L278.501 105.276L278.693 112.22L279.693 112.192ZM279.501 105.248V106.248H281.197V105.248V104.248H279.501V105.248ZM281.197 105.248L280.198 105.294C280.292 107.347 280.965 109.049 282.326 110.253L282.989 109.504L283.651 108.755C282.793 107.996 282.272 106.861 282.196 105.202L281.197 105.248ZM282.989 109.504L282.326 110.253C283.648 111.423 285.316 111.976 287.245 111.976V110.976V109.976C285.718 109.976 284.548 109.548 283.651 108.755L282.989 109.504ZM287.245 110.976V111.976C288.694 111.976 289.975 111.579 291.015 110.725L290.381 109.952L289.746 109.179C289.123 109.691 288.313 109.976 287.245 109.976V110.976ZM290.381 109.952L291.027 110.715C292.115 109.794 292.629 108.527 292.629 107.04H291.629H290.629C290.629 108.028 290.31 108.702 289.735 109.189L290.381 109.952ZM291.629 107.04H292.629C292.629 105.95 292.326 104.966 291.676 104.147L290.893 104.768L290.109 105.389C290.441 105.808 290.629 106.338 290.629 107.04H291.629ZM290.893 104.768L291.686 104.16C291.11 103.408 290.397 102.797 289.557 102.327L289.069 103.2L288.581 104.073C289.191 104.414 289.694 104.848 290.099 105.376L290.893 104.768ZM289.069 103.2L289.576 102.338C288.803 101.883 287.771 101.375 286.496 100.813L286.093 101.728L285.689 102.643C286.932 103.191 287.884 103.663 288.562 104.062L289.069 103.2ZM286.093 101.728L286.495 100.812C285.106 100.202 284.003 99.6543 283.174 99.169L282.669 100.032L282.164 100.895C283.084 101.434 284.263 102.016 285.69 102.644L286.093 101.728ZM282.669 100.032L283.174 99.169C282.421 98.7285 281.79 98.1523 281.273 97.4328L280.461 98.016L279.648 98.5992C280.327 99.5437 281.167 100.312 282.164 100.895L282.669 100.032ZM280.461 98.016L281.28 97.4425C280.823 96.7897 280.565 95.945 280.565 94.848H279.565H278.565C278.565 96.2683 278.904 97.5356 279.642 98.5895L280.461 98.016ZM279.565 94.848H280.565C280.565 94.1583 280.727 93.4508 281.076 92.7171L280.173 92.288L279.269 91.8589C278.807 92.8318 278.565 93.831 278.565 94.848H279.565ZM280.173 92.288L281.08 92.7085C281.384 92.052 281.93 91.4554 282.797 90.9391L282.285 90.08L281.773 89.2209C280.634 89.8993 279.772 90.7747 279.265 91.8675L280.173 92.288ZM282.285 90.08L282.81 90.931C283.602 90.442 284.733 90.152 286.285 90.152V89.152V88.152C284.508 88.152 282.972 88.4807 281.76 89.229L282.285 90.08ZM286.285 89.152V90.152C287.078 90.152 287.91 90.2487 288.783 90.4471L289.005 89.472L289.226 88.4969C288.222 88.2686 287.241 88.152 286.285 88.152V89.152ZM289.005 89.472L288.783 90.4471C289.617 90.6367 290.377 90.9474 291.069 91.3773L291.597 90.528L292.125 89.6787C291.238 89.1273 290.27 88.7339 289.226 88.4969L289.005 89.472ZM291.597 90.528L292.593 90.4426L292.497 89.3226L291.501 89.408L290.504 89.4934L290.6 90.6134L291.597 90.528ZM291.501 89.408V90.408H293.581V89.408V88.408H291.501V89.408ZM293.581 89.408H292.581V96.576H293.581H294.581V89.408H293.581ZM293.581 96.576V95.576H291.981V96.576V97.576H293.581V96.576ZM291.981 96.576L292.979 96.5261C292.885 94.6398 292.313 92.9975 291.22 91.6563L290.445 92.288L289.67 92.9197C290.454 93.8825 290.906 95.0989 290.982 96.6259L291.981 96.576ZM290.445 92.288L291.22 91.6563C290.064 90.2382 288.449 89.56 286.509 89.56V90.56V91.56C287.939 91.56 288.948 92.0338 289.67 92.9197L290.445 92.288ZM286.509 90.56V89.56C285.091 89.56 283.857 89.9771 282.943 90.9199L283.661 91.616L284.379 92.3121C284.83 91.8469 285.494 91.56 286.509 91.56V90.56ZM283.661 91.616L282.954 90.9089C282.063 91.7996 281.637 92.9386 281.637 94.24H282.637H283.637C283.637 93.408 283.893 92.7977 284.368 92.3231L283.661 91.616ZM316.121 112V113H317.091L317.121 112.03L316.121 112ZM299.161 112H298.161V113H299.161V112ZM299.161 110.816V109.816H298.161V110.816H299.161ZM300.793 110.368L301.5 111.075L301.512 111.063L301.524 111.05L300.793 110.368ZM301.305 109.248L300.31 109.148L301.305 109.248ZM301.465 91.008L302.46 91.1075L302.576 89.9447L301.41 90.0095L301.465 91.008ZM299.161 91.136H298.161V92.1931L299.216 92.1345L299.161 91.136ZM299.161 89.6V88.6H298.161V89.6H299.161ZM315.001 89.6L316.001 89.5721L315.973 88.6H315.001V89.6ZM315.161 95.328V96.328H316.189L316.161 95.3001L315.161 95.328ZM313.657 95.328L312.657 95.316L312.645 96.328H313.657V95.328ZM312.601 91.744L311.928 92.4839L311.94 92.4946L311.952 92.5048L312.601 91.744ZM309.561 90.848L309.584 91.8478L309.593 91.8475L309.561 90.848ZM306.809 90.912L306.786 89.9122L306.779 89.9125L306.809 90.912ZM305.273 91.328L304.648 90.5471L304.635 90.5577L304.622 90.5687L305.273 91.328ZM304.697 92.416L303.713 92.2371L303.709 92.2589L303.706 92.2809L304.697 92.416ZM304.601 99.648H303.601V100.642L304.595 100.648L304.601 99.648ZM310.169 99.68L310.163 100.68L311.254 100.686L311.166 99.5989L310.169 99.68ZM309.945 96.928V95.928H308.86L308.948 97.0091L309.945 96.928ZM311.801 96.928H312.801V95.928H311.801V96.928ZM311.801 103.776V104.776H312.801V103.776H311.801ZM310.297 103.776H309.297V104.776H310.297V103.776ZM310.041 101.952L309.103 102.298L309.111 102.319L309.119 102.34L310.041 101.952ZM309.273 101.152L308.872 102.068L308.906 102.083L308.94 102.095L309.273 101.152ZM307.737 100.928V99.928H307.721L307.706 99.9285L307.737 100.928ZM306.713 100.96L306.682 99.9605L306.675 99.9607L306.668 99.961L306.713 100.96ZM304.601 101.056L304.556 100.057L303.601 100.1V101.056H304.601ZM304.505 110.688L303.512 110.573L303.381 111.706L304.521 111.688L304.505 110.688ZM310.393 110.592L310.378 109.592L310.377 109.592L310.393 110.592ZM313.689 109.472L314.386 110.189L313.689 109.472ZM314.777 105.632V104.632H313.765L313.777 105.644L314.777 105.632ZM316.313 105.632L317.313 105.662L317.344 104.632H316.313V105.632ZM316.121 112V111H299.161V112V113H316.121V112ZM299.161 112H300.161V110.816H299.161H298.161V112H299.161ZM299.161 110.816V111.816H299.257V110.816V109.816H299.161V110.816ZM299.257 110.816V111.816C300.07 111.816 300.918 111.658 301.5 111.075L300.793 110.368L300.086 109.661C300.071 109.676 299.895 109.816 299.257 109.816V110.816ZM300.793 110.368L301.524 111.05C301.969 110.574 302.235 109.997 302.3 109.348L301.305 109.248L300.31 109.148C300.29 109.352 300.215 109.522 300.062 109.686L300.793 110.368ZM301.305 109.248L302.3 109.348C302.348 108.865 302.369 108.051 302.369 106.944H301.369H300.369C300.369 108.056 300.347 108.778 300.31 109.148L301.305 109.248ZM301.369 106.944H302.369V93.248H301.369H300.369V106.944H301.369ZM301.369 93.248H302.369C302.369 92.4179 302.4 91.7058 302.46 91.1075L301.465 91.008L300.47 90.9085C300.402 91.5902 300.369 92.3714 300.369 93.248H301.369ZM301.465 91.008L301.41 90.0095L299.106 90.1375L299.161 91.136L299.216 92.1345L301.52 92.0065L301.465 91.008ZM299.161 91.136H300.161V89.6H299.161H298.161V91.136H299.161ZM299.161 89.6V90.6H315.001V89.6V88.6H299.161V89.6ZM315.001 89.6L314.001 89.6279L314.161 95.3559L315.161 95.328L316.161 95.3001L316.001 89.5721L315.001 89.6ZM315.161 95.328V94.328H313.657V95.328V96.328H315.161V95.328ZM313.657 95.328L314.657 95.34C314.679 93.5081 314.334 91.9078 313.25 90.9832L312.601 91.744L311.952 92.5048C312.319 92.8175 312.678 93.6065 312.657 95.316L313.657 95.328ZM312.601 91.744L313.274 91.0041C312.313 90.1305 311.008 89.8008 309.529 89.8485L309.561 90.848L309.593 91.8475C310.759 91.8099 311.481 92.0775 311.928 92.4839L312.601 91.744ZM309.561 90.848L309.538 89.8483L306.786 89.9123L306.809 90.912L306.832 91.9117L309.584 91.8477L309.561 90.848ZM306.809 90.912L306.779 89.9125C305.998 89.9361 305.221 90.0887 304.648 90.5471L305.273 91.328L305.898 92.1089C305.965 92.0553 306.212 91.9305 306.839 91.9115L306.809 90.912ZM305.273 91.328L304.622 90.5687C304.114 91.0041 303.831 91.5916 303.713 92.2371L304.697 92.416L305.681 92.5949C305.734 92.3018 305.834 92.1639 305.924 92.0873L305.273 91.328ZM304.697 92.416L303.706 92.2809C303.632 92.8219 303.601 93.6262 303.601 94.656H304.601H305.601C305.601 93.6378 305.634 92.9487 305.688 92.5511L304.697 92.416ZM304.601 94.656H303.601V99.648H304.601H305.601V94.656H304.601ZM304.601 99.648L304.595 100.648L310.163 100.68L310.169 99.68L310.175 98.68L304.607 98.648L304.601 99.648ZM310.169 99.68L311.166 99.5989L310.942 96.8469L309.945 96.928L308.948 97.0091L309.172 99.7611L310.169 99.68ZM309.945 96.928V97.928H311.801V96.928V95.928H309.945V96.928ZM311.801 96.928H310.801V103.776H311.801H312.801V96.928H311.801ZM311.801 103.776V102.776H310.297V103.776V104.776H311.801V103.776ZM310.297 103.776H311.297C311.297 102.925 311.212 102.156 310.963 101.564L310.041 101.952L309.119 102.34C309.211 102.559 309.297 103.005 309.297 103.776H310.297ZM310.041 101.952L310.979 101.606C310.741 100.96 310.286 100.449 309.606 100.209L309.273 101.152L308.94 102.095C308.985 102.111 309.042 102.133 309.103 102.298L310.041 101.952ZM309.273 101.152L309.674 100.236C309.141 100.003 308.462 99.928 307.737 99.928V100.928V101.928C308.378 101.928 308.723 102.003 308.872 102.068L309.273 101.152ZM307.737 100.928L307.706 99.9285L306.682 99.9605L306.713 100.96L306.744 101.96L307.768 101.928L307.737 100.928ZM306.713 100.96L306.668 99.961L304.556 100.057L304.601 101.056L304.646 102.055L306.758 101.959L306.713 100.96ZM304.601 101.056H303.601V108.256H304.601H305.601V101.056H304.601ZM304.601 108.256H303.601C303.601 109.312 303.569 110.077 303.512 110.573L304.505 110.688L305.498 110.803C305.569 110.19 305.601 109.333 305.601 108.256H304.601ZM304.505 110.688L304.521 111.688L310.409 111.592L310.393 110.592L310.377 109.592L304.489 109.688L304.505 110.688ZM310.393 110.592L310.408 111.592C312.012 111.568 313.395 111.152 314.386 110.189L313.689 109.472L312.992 108.755C312.49 109.242 311.675 109.573 310.378 109.592L310.393 110.592ZM313.689 109.472L314.386 110.189C315.435 109.17 315.799 107.535 315.777 105.62L314.777 105.632L313.777 105.644C313.797 107.398 313.436 108.323 312.992 108.755L313.689 109.472ZM314.777 105.632V106.632H316.313V105.632V104.632H314.777V105.632ZM316.313 105.632L315.313 105.602L315.121 111.97L316.121 112L317.121 112.03L317.313 105.662L316.313 105.632ZM342.363 90.784V91.784H343.363V90.784H342.363ZM342.267 90.784V89.784H342.255L342.243 89.7843L342.267 90.784ZM340.571 91.456L339.714 90.9415L339.71 90.9482L339.706 90.955L340.571 91.456ZM340.219 94.656L341.219 94.6596V94.656H340.219ZM340.155 112.512V113.512H341.152L341.155 112.516L340.155 112.512ZM338.235 112.512L337.435 113.112L337.735 113.512H338.235V112.512ZM324.699 94.464L325.499 93.864L323.677 91.4342L323.699 94.4714L324.699 94.464ZM324.795 107.488H325.795L325.795 107.481L324.795 107.488ZM324.731 110.592L323.733 110.53L323.663 111.653L324.787 111.59L324.731 110.592ZM327.035 110.464H328.035V109.407L326.98 109.466L327.035 110.464ZM327.035 112V113H328.035V112H327.035ZM320.731 112H319.731V113H320.731V112ZM320.731 110.816V109.816H319.731V110.816H320.731ZM320.827 110.816L320.854 109.816L320.84 109.816H320.827V110.816ZM322.427 110.144L321.557 109.652L321.553 109.659L321.549 109.665L322.427 110.144ZM322.843 108.352L321.843 108.35V108.352H322.843ZM322.875 91.008L323.875 91.0098L323.877 89.9464L322.816 90.0098L322.875 91.008ZM320.731 91.136H319.731V92.1975L320.791 92.1342L320.731 91.136ZM320.731 89.6V88.6H319.731V89.6H320.731ZM324.923 89.6L325.722 88.9984L325.422 88.6H324.923V89.6ZM338.203 107.232L337.404 107.834L339.196 110.213L339.203 107.234L338.203 107.232ZM338.235 93.248L339.235 93.2503V93.248H338.235ZM338.331 91.008L339.326 91.1075L339.443 89.9447L338.276 90.0095L338.331 91.008ZM336.027 91.136H335.027V92.1931L336.083 92.1345L336.027 91.136ZM336.027 89.6V88.6H335.027V89.6H336.027ZM342.363 89.6H343.363V88.6H342.363V89.6ZM342.363 90.784V89.784H342.267V90.784V91.784H342.363V90.784ZM342.267 90.784L342.243 89.7843C341.284 89.8077 340.247 90.0526 339.714 90.9415L340.571 91.456L341.429 91.9705C341.429 91.9704 341.429 91.9703 341.429 91.9702C341.429 91.9701 341.429 91.9696 341.43 91.9689C341.431 91.9675 341.435 91.9637 341.442 91.9578C341.457 91.946 341.491 91.9233 341.556 91.8977C341.692 91.8437 341.925 91.7926 342.292 91.7837L342.267 90.784ZM340.571 91.456L339.706 90.955C339.331 91.6016 339.219 92.5014 339.219 93.472H340.219H341.219C341.219 92.5652 341.342 92.1211 341.437 91.957L340.571 91.456ZM340.219 93.472H339.219V94.656H340.219H341.219V93.472H340.219ZM340.219 94.656L339.219 94.6524L339.155 112.508L340.155 112.512L341.155 112.516L341.219 94.6596L340.219 94.656ZM340.155 112.512V111.512H338.235V112.512V113.512H340.155V112.512ZM338.235 112.512L339.035 111.912L325.499 93.864L324.699 94.464L323.899 95.064L337.435 113.112L338.235 112.512ZM324.699 94.464L323.699 94.4714L323.795 107.495L324.795 107.488L325.795 107.481L325.699 94.4566L324.699 94.464ZM324.795 107.488H323.795C323.795 108.87 323.774 109.879 323.733 110.53L324.731 110.592L325.729 110.654C325.774 109.939 325.795 108.879 325.795 107.488H324.795ZM324.731 110.592L324.787 111.59L327.091 111.462L327.035 110.464L326.98 109.466L324.676 109.594L324.731 110.592ZM327.035 110.464H326.035V112H327.035H328.035V110.464H327.035ZM327.035 112V111H320.731V112V113H327.035V112ZM320.731 112H321.731V110.816H320.731H319.731V112H320.731ZM320.731 110.816V111.816H320.827V110.816V109.816H320.731V110.816ZM320.827 110.816L320.801 111.816C321.772 111.841 322.786 111.575 323.305 110.623L322.427 110.144L321.549 109.665C321.539 109.684 321.524 109.71 321.448 109.742C321.354 109.782 321.17 109.825 320.854 109.816L320.827 110.816ZM322.427 110.144L323.298 110.636C323.679 109.962 323.843 109.186 323.843 108.352H322.843H321.843C321.843 108.926 321.731 109.344 321.557 109.652L322.427 110.144ZM322.843 108.352L323.843 108.354L323.875 91.0098L322.875 91.008L321.875 91.0062L321.843 108.35L322.843 108.352ZM322.875 91.008L322.816 90.0098L320.672 90.1378L320.731 91.136L320.791 92.1342L322.935 92.0062L322.875 91.008ZM320.731 91.136H321.731V89.6H320.731H319.731V91.136H320.731ZM320.731 89.6V90.6H324.923V89.6V88.6H320.731V89.6ZM324.923 89.6L324.124 90.2016L337.404 107.834L338.203 107.232L339.002 106.63L325.722 88.9984L324.923 89.6ZM338.203 107.232L339.203 107.234L339.235 93.2503L338.235 93.248L337.235 93.2457L337.203 107.23L338.203 107.232ZM338.235 93.248H339.235C339.235 92.4179 339.266 91.7058 339.326 91.1075L338.331 91.008L337.336 90.9085C337.268 91.5902 337.235 92.3714 337.235 93.248H338.235ZM338.331 91.008L338.276 90.0095L335.972 90.1375L336.027 91.136L336.083 92.1345L338.387 92.0065L338.331 91.008ZM336.027 91.136H337.027V89.6H336.027H335.027V91.136H336.027ZM336.027 89.6V90.6H342.363V89.6V88.6H336.027V89.6ZM342.363 89.6H341.363V90.784H342.363H343.363V89.6H342.363ZM366.706 107.744L367.526 108.317L368.093 107.506L367.287 106.93L366.706 107.744ZM362.418 111.456L362.806 112.378L362.817 112.373L362.418 111.456ZM351.698 110.976L351.179 111.831L351.187 111.835L351.698 110.976ZM347.762 106.848L348.641 106.371L347.762 106.848ZM347.634 95.328L348.541 95.7497L347.634 95.328ZM351.474 90.848L350.92 90.0159L350.915 90.0191L351.474 90.848ZM363.89 90.816L363.374 91.6726L365.057 92.6858L364.886 90.7294L363.89 90.816ZM363.762 89.344V88.344H362.672L362.766 89.4306L363.762 89.344ZM365.938 89.344H366.938V88.344H365.938V89.344ZM365.938 96.896V97.896H366.938V96.896H365.938ZM364.338 96.896L363.344 97.0018L363.439 97.896H364.338V96.896ZM362.322 92.224L363.023 91.5102L362.322 92.224ZM353.874 91.808L353.31 90.9827L353.874 91.808ZM350.994 95.392L351.903 95.8087L351.905 95.8039L350.994 95.392ZM351.058 105.952L350.161 106.394L350.164 106.399L351.058 105.952ZM354.066 109.44L353.515 110.274L353.521 110.278L354.066 109.44ZM362.354 109.728L361.913 108.831L361.907 108.834L362.354 109.728ZM365.586 106.944L366.167 106.13L365.347 105.544L364.768 106.37L365.586 106.944ZM366.706 107.744L365.887 107.171C364.732 108.824 363.438 109.923 362.02 110.539L362.418 111.456L362.817 112.373C364.642 111.581 366.206 110.205 367.526 108.317L366.706 107.744ZM362.418 111.456L362.03 110.534C360.526 111.168 359.004 111.48 357.458 111.48V112.48V113.48C359.283 113.48 361.068 113.11 362.806 112.378L362.418 111.456ZM357.458 112.48V111.48C355.465 111.48 353.725 111.018 352.21 110.117L351.698 110.976L351.187 111.835C353.042 112.939 355.142 113.48 357.458 113.48V112.48ZM351.698 110.976L352.218 110.121C350.683 109.189 349.495 107.943 348.641 106.371L347.762 106.848L346.884 107.325C347.907 109.209 349.343 110.715 351.179 111.831L351.698 110.976ZM347.762 106.848L348.641 106.371C347.786 104.797 347.354 103.064 347.354 101.152H346.354H345.354C345.354 103.379 345.861 105.443 346.884 107.325L347.762 106.848ZM346.354 101.152H347.354C347.354 99.2479 347.75 97.4506 348.541 95.7497L347.634 95.328L346.728 94.9063C345.812 96.8747 345.354 98.9601 345.354 101.152H346.354ZM347.634 95.328L348.541 95.7497C349.316 94.0828 350.475 92.7291 352.034 91.6768L351.474 90.848L350.915 90.0191C349.06 91.2709 347.659 92.9038 346.728 94.9063L347.634 95.328ZM351.474 90.848L352.029 91.68C353.568 90.6543 355.436 90.12 357.682 90.12V89.12V88.12C355.107 88.12 352.837 88.7377 350.92 90.0159L351.474 90.848ZM357.682 89.12V90.12C359.768 90.12 361.658 90.6389 363.374 91.6726L363.89 90.816L364.406 89.9594C362.368 88.7318 360.119 88.12 357.682 88.12V89.12ZM363.89 90.816L364.886 90.7294L364.758 89.2574L363.762 89.344L362.766 89.4306L362.894 90.9026L363.89 90.816ZM363.762 89.344V90.344H365.938V89.344V88.344H363.762V89.344ZM365.938 89.344H364.938V96.896H365.938H366.938V89.344H365.938ZM365.938 96.896V95.896H364.338V96.896V97.896H365.938V96.896ZM364.338 96.896L365.333 96.7902C365.102 94.6185 364.36 92.8221 363.023 91.5102L362.322 92.224L361.622 92.9378C362.546 93.8445 363.148 95.1628 363.344 97.0018L364.338 96.896ZM362.322 92.224L363.023 91.5102C361.678 90.1905 359.94 89.56 357.906 89.56V90.56V91.56C359.499 91.56 360.706 92.0388 361.622 92.9378L362.322 92.224ZM357.906 90.56V89.56C356.233 89.56 354.692 90.037 353.31 90.9827L353.874 91.808L354.439 92.6333C355.489 91.915 356.636 91.56 357.906 91.56V90.56ZM353.874 91.808L353.31 90.9827C351.92 91.9338 350.85 93.2829 350.083 94.9801L350.994 95.392L351.905 95.8039C352.546 94.3864 353.397 93.3462 354.439 92.6333L353.874 91.808ZM350.994 95.392L350.085 94.9753C349.31 96.6668 348.938 98.6061 348.938 100.768H349.938H350.938C350.938 98.8339 351.271 97.1892 351.903 95.8087L350.994 95.392ZM349.938 100.768H348.938C348.938 102.84 349.337 104.723 350.161 106.394L351.058 105.952L351.955 105.51C351.286 104.152 350.938 102.579 350.938 100.768H349.938ZM351.058 105.952L350.164 106.399C350.98 108.032 352.095 109.335 353.515 110.274L354.066 109.44L354.618 108.606C353.521 107.881 352.629 106.858 351.953 105.505L351.058 105.952ZM354.066 109.44L353.521 110.278C354.965 111.217 356.562 111.688 358.29 111.688V110.688V109.688C356.946 109.688 355.728 109.327 354.611 108.602L354.066 109.44ZM358.29 110.688V111.688C359.875 111.688 361.383 111.332 362.801 110.622L362.354 109.728L361.907 108.834C360.766 109.404 359.564 109.688 358.29 109.688V110.688ZM362.354 109.728L362.796 110.625C364.252 109.909 365.457 108.869 366.405 107.518L365.586 106.944L364.768 106.37C364.008 107.451 363.06 108.267 361.913 108.831L362.354 109.728ZM365.586 106.944L365.005 107.758L366.125 108.558L366.706 107.744L367.287 106.93L366.167 106.13L365.586 106.944ZM376.633 91.264L377.34 91.9711L377.353 91.9589L377.364 91.9463L376.633 91.264ZM375.961 110.592L374.967 110.482L374.837 111.656L376.017 111.59L375.961 110.592ZM378.265 110.464H379.265V109.407L378.21 109.466L378.265 110.464ZM378.265 112V113H379.265V112H378.265ZM370.617 112H369.617V113H370.617V112ZM370.617 110.816V109.816H369.617V110.816H370.617ZM372.249 110.368L372.956 111.075L372.969 111.063L372.98 111.05L372.249 110.368ZM372.761 109.248L371.766 109.148L372.761 109.248ZM372.921 91.008L373.916 91.1075L374.033 89.9447L372.866 90.0095L372.921 91.008ZM370.617 91.136H369.617V92.1931L370.673 92.1345L370.617 91.136ZM370.617 89.6V88.6H369.617V89.6H370.617ZM378.265 89.6H379.265V88.6H378.265V89.6ZM378.265 90.784V91.784H379.265V90.784H378.265ZM378.169 90.784V89.784C377.341 89.784 376.483 89.9595 375.902 90.5817L376.633 91.264L377.364 91.9463C377.381 91.9285 377.547 91.784 378.169 91.784V90.784ZM376.633 91.264L375.926 90.5569C375.462 91.0215 375.191 91.5999 375.126 92.2525L376.121 92.352L377.116 92.4515C377.136 92.2507 377.208 92.1039 377.34 91.9711L376.633 91.264ZM376.121 92.352L375.126 92.2525C375.078 92.7351 375.057 93.5494 375.057 94.656H376.057H377.057C377.057 93.5439 377.079 92.8223 377.116 92.4515L376.121 92.352ZM376.057 94.656H375.057V108.128H376.057H377.057V94.656H376.057ZM376.057 108.128H375.057C375.057 109.183 375.025 109.961 374.967 110.482L375.961 110.592L376.955 110.702C377.025 110.071 377.057 109.206 377.057 108.128H376.057ZM375.961 110.592L376.017 111.59L378.321 111.462L378.265 110.464L378.21 109.466L375.906 109.594L375.961 110.592ZM378.265 110.464H377.265V112H378.265H379.265V110.464H378.265ZM378.265 112V111H370.617V112V113H378.265V112ZM370.617 112H371.617V110.816H370.617H369.617V112H370.617ZM370.617 110.816V111.816H370.713V110.816V109.816H370.617V110.816ZM370.713 110.816V111.816C371.526 111.816 372.374 111.658 372.956 111.075L372.249 110.368L371.542 109.661C371.527 109.676 371.351 109.816 370.713 109.816V110.816ZM372.249 110.368L372.98 111.05C373.425 110.574 373.691 109.997 373.756 109.348L372.761 109.248L371.766 109.148C371.746 109.352 371.671 109.522 371.518 109.686L372.249 110.368ZM372.761 109.248L373.756 109.348C373.805 108.865 373.825 108.051 373.825 106.944H372.825H371.825C371.825 108.056 371.803 108.778 371.766 109.148L372.761 109.248ZM372.825 106.944H373.825V93.248H372.825H371.825V106.944H372.825ZM372.825 93.248H373.825C373.825 92.4179 373.856 91.7058 373.916 91.1075L372.921 91.008L371.926 90.9085C371.858 91.5902 371.825 92.3714 371.825 93.248H372.825ZM372.921 91.008L372.866 90.0095L370.562 90.1375L370.617 91.136L370.673 92.1345L372.977 92.0065L372.921 91.008ZM370.617 91.136H371.617V89.6H370.617H369.617V91.136H370.617ZM370.617 89.6V90.6H378.265V89.6V88.6H370.617V89.6ZM378.265 89.6H377.265V90.784H378.265H379.265V89.6H378.265ZM378.265 90.784V89.784H378.169V90.784V91.784H378.265V90.784ZM402.04 112V113H403.04V112H402.04ZM394.264 112H393.264V113H394.264V112ZM394.264 110.816V109.816H393.264V110.816H394.264ZM395.832 107.872L396.774 107.538L396.772 107.53L396.769 107.522L395.832 107.872ZM394.744 104.96L395.681 104.61L395.432 103.943L394.72 103.96L394.744 104.96ZM386.712 105.152L386.688 104.152L386.712 106.152V105.152ZM386.808 105.152L387.748 105.494L388.236 104.152H386.808V105.152ZM385.72 108.48L384.765 108.184L384.762 108.193L385.72 108.48ZM384.952 110.592L384.029 110.207L383.418 111.673L385.004 111.591L384.952 110.592ZM387.416 110.464H388.416V109.411L387.364 109.465L387.416 110.464ZM387.416 112V113H388.416V112H387.416ZM380.984 112H379.984V113H380.984V112ZM380.984 110.816V109.816H379.984V110.816H380.984ZM381.08 110.816L381.123 109.817L381.102 109.816H381.08V110.816ZM382.264 110.528L382.845 111.342L382.855 111.334L382.264 110.528ZM383.736 107.84L384.679 108.171L384.695 108.128L384.706 108.083L383.736 107.84ZM384.088 106.848L385.026 107.195L385.026 107.195L384.088 106.848ZM390.712 88.928V87.928H390.016L389.774 88.5813L390.712 88.928ZM391.864 88.928L392.794 88.5611L392.545 87.928H391.864V88.928ZM399.032 107.104L399.968 106.753L399.965 106.745L399.962 106.737L399.032 107.104ZM399.864 110.592L398.864 110.565L398.835 111.654L399.923 111.59L399.864 110.592ZM402.04 110.464H403.04V109.403L401.981 109.466L402.04 110.464ZM391.992 97.632L391.051 97.9717L391.055 97.9809L391.992 97.632ZM390.744 94.176L391.685 93.8364L390.752 91.254L389.805 93.8312L390.744 94.176ZM389.592 97.312L388.653 96.9672L388.652 96.9695L389.592 97.312ZM387.352 103.648L386.406 103.323L385.952 104.648H387.352V103.648ZM394.232 103.648V104.648H395.671L395.169 103.299L394.232 103.648ZM402.04 112V111H394.264V112V113H402.04V112ZM394.264 112H395.264V110.816H394.264H393.264V112H394.264ZM394.264 110.816V111.816H394.36V110.816V109.816H394.264V110.816ZM394.36 110.816V111.816C395.073 111.816 395.792 111.68 396.348 111.241C396.949 110.766 397.184 110.081 397.184 109.376H396.184H395.184C395.184 109.512 395.162 109.585 395.149 109.617C395.138 109.643 395.127 109.657 395.108 109.671C395.056 109.712 394.863 109.816 394.36 109.816V110.816ZM396.184 109.376H397.184C397.184 108.854 397.016 108.218 396.774 107.538L395.832 107.872L394.89 108.206C395.118 108.849 395.184 109.215 395.184 109.376H396.184ZM395.832 107.872L396.769 107.522L395.681 104.61L394.744 104.96L393.807 105.31L394.895 108.222L395.832 107.872ZM394.744 104.96L394.72 103.96L386.688 104.152L386.712 105.152L386.736 106.152L394.768 105.96L394.744 104.96ZM386.712 105.152V106.152H386.808V105.152V104.152H386.712V105.152ZM386.808 105.152L385.868 104.81C385.603 105.538 385.235 106.667 384.765 108.184L385.72 108.48L386.675 108.776C387.144 107.264 387.501 106.174 387.748 105.494L386.808 105.152ZM385.72 108.48L384.762 108.193C384.582 108.793 384.339 109.464 384.029 110.207L384.952 110.592L385.875 110.977C386.205 110.184 386.474 109.447 386.678 108.767L385.72 108.48ZM384.952 110.592L385.004 111.591L387.468 111.463L387.416 110.464L387.364 109.465L384.9 109.593L384.952 110.592ZM387.416 110.464H386.416V112H387.416H388.416V110.464H387.416ZM387.416 112V111H380.984V112V113H387.416V112ZM380.984 112H381.984V110.816H380.984H379.984V112H380.984ZM380.984 110.816V111.816H381.08V110.816V109.816H380.984V110.816ZM381.08 110.816L381.037 111.815C381.675 111.843 382.312 111.723 382.845 111.342L382.264 110.528L381.683 109.714C381.619 109.76 381.466 109.832 381.123 109.817L381.08 110.816ZM382.264 110.528L382.855 111.334C383.314 110.998 383.669 110.561 383.926 110.047L383.032 109.6L382.138 109.153C382.011 109.407 381.854 109.588 381.673 109.722L382.264 110.528ZM383.032 109.6L383.926 110.047C384.147 109.605 384.399 108.971 384.679 108.171L383.736 107.84L382.793 107.509C382.519 108.288 382.301 108.827 382.138 109.153L383.032 109.6ZM383.736 107.84L384.706 108.083C384.701 108.103 384.701 108.099 384.719 108.046C384.733 108.003 384.754 107.942 384.782 107.862C384.839 107.703 384.92 107.482 385.026 107.195L384.088 106.848L383.15 106.501C382.95 107.04 382.804 107.443 382.766 107.597L383.736 107.84ZM384.088 106.848L385.026 107.195L391.65 89.2747L390.712 88.928L389.774 88.5813L383.15 106.501L384.088 106.848ZM390.712 88.928V89.928H391.864V88.928V87.928H390.712V88.928ZM391.864 88.928L390.934 89.2949L398.102 107.471L399.032 107.104L399.962 106.737L392.794 88.5611L391.864 88.928ZM399.032 107.104L398.096 107.455C398.665 108.972 398.88 109.981 398.864 110.565L399.864 110.592L400.864 110.619C400.891 109.624 400.551 108.308 399.968 106.753L399.032 107.104ZM399.864 110.592L399.923 111.59L402.099 111.462L402.04 110.464L401.981 109.466L399.805 109.594L399.864 110.592ZM402.04 110.464H401.04V112H402.04H403.04V110.464H402.04ZM391.992 97.632L392.933 97.2924L391.685 93.8364L390.744 94.176L389.803 94.5156L391.051 97.9716L391.992 97.632ZM390.744 94.176L389.805 93.8312L388.653 96.9672L389.592 97.312L390.531 97.6568L391.683 94.5208L390.744 94.176ZM389.592 97.312L388.652 96.9695C387.904 99.0238 387.155 101.142 386.406 103.323L387.352 103.648L388.298 103.973C389.043 101.802 389.787 99.6962 390.531 97.6545L389.592 97.312ZM387.352 103.648V104.648H394.232V103.648V102.648H387.352V103.648ZM394.232 103.648L395.169 103.299L392.929 97.2831L391.992 97.632L391.055 97.9809L393.295 103.997L394.232 103.648Z" fill="black" mask="url(#path-7-outside-1_166_600)"/>
</svg>
